<?xml version="1.0" encoding="utf-8"?>
<!-- Generator: Adobe Illustrator 19.1.0, SVG Export Plug-In . SVG Version: 6.00 Build 0)  -->
<svg version="1.1" xmlns="http://www.w3.org/2000/svg" xmlns:xlink="http://www.w3.org/1999/xlink" x="0px" y="0px"
	 viewBox="0 0 266.7 242.5" style="enable-background:new 0 0 266.7 242.5;" xml:space="preserve">
<style type="text/css">
	.st0{fill:#6D6E70;}
	.st1{fill:#CB962C;}
	.st2{fill:#EEC765;}
	.st3{fill:#FDDDC5;}
	.st4{fill:#046455;}
	.st5{fill:#D2761B;}
	.st6{fill:#BBBDBF;}
	.st7{fill:#3E454F;}
	.st8{fill:#332F2D;}
	.st9{fill:#645D5B;}
	.st10{fill:#763C19;}
	.st11{fill:#404040;}
	.st12{fill:#FDEADD;}
	.st13{fill:#F0CFB8;}
	.st14{fill:#007A69;}
	.st15{fill:#4B6282;}
	.st16{fill:#139F87;}
	.st17{fill:#F58721;}
	.st18{fill:#F1F1F2;}
	.st19{fill:#D0D2D3;}
	.st20{fill:#808184;}
	.st21{fill:#58595B;}
	.st22{fill:#A6A8AB;}
	.st23{fill:#FBB56A;}
</style>
<g id="Layer_3">
</g>
<g id="Layer_2">
	<g>
		<path class="st0" d="M215.6,188.6l-43.4-88.5c0,0-3-5.3-4.4-6.5c-1.4-1.3-3-2-5.7-2h-11.6c-1.3,0-2.4,1.1-2.4,2.4v3.4
			c0,1.3,1.1,2.4,2.4,2.4h10.7c0,0,1.7,0.1,2.5,1.3c0.6,0.8,1.4,2.4,1.4,2.4l43.8,88.4c0.6,1.2,2,1.7,3.2,1.1l2.3-1.1
			C215.7,191.3,216.2,189.8,215.6,188.6z"/>
		<g>
			
				<rect x="192.2" y="119.4" transform="matrix(0.8976 -0.4408 0.4408 0.8976 -43.1831 114.2738)" class="st1" width="64.3" height="61.4"/>
			<polygon class="st2" points="209,191.8 182,136.7 239.7,108.4 			"/>
			
				<rect x="204.4" y="123.5" transform="matrix(0.8991 -0.4378 0.4378 0.8991 -36.1399 105.542)" class="st1" width="12.9" height="15.3"/>
		</g>
		<path class="st3" d="M145.7,95.3c0.4,1.9,2.3,3.1,4.2,2.7l8.6-1.8c1.9-0.4,3.1-2.3,2.7-4.2l0,0c-0.4-1.9-2.3-3.1-4.2-2.7l-8.6,1.8
			C146.5,91.5,145.3,93.4,145.7,95.3L145.7,95.3z"/>
		<path class="st4" d="M84.9,69.9c-1.3-3,0.1-6.4,3-7.7c2.4-1,5-0.3,6.6,1.4c0,0,0.7,0.9,0.9,1.2c4.1,6.3,24.5,34.3,57.4,25.2
			c1,3.3,1.1,3.7,1.4,7C106.8,112.7,85,70.1,85,70.1v0C85,70,84.9,70,84.9,69.9z"/>
		<path class="st5" d="M85.9,70.7c-1.3-3,0-6.4,3-7.7c2.3-1,5-0.4,6.6,1.4c0,0,0.7,0.9,0.8,1.2c3,4.6,7.2,9.2,13.3,14.7
			c6.4,5.6,14.7,8.8,14.7,8.8l-3.2,10.1c0,0-3-0.1-9.9-3.7c-2.9-1.5-5.6-3.3-10.5-6.9c-4-3-7.7-6.8-10.2-10.3c-3-4-4.7-7.3-4.7-7.3
			l0,0C86,70.9,86,70.8,85.9,70.7z"/>
		<path class="st6" d="M98.7,86.9c0,0,2.9-3.5,3.9-4.7c1-1.2,3.9-4.9,3.9-4.9l4.1,3.7c0,0-2.9,4-3.8,5.1c-1,1.2-4,4.8-4,4.8
			s-0.5-0.4-1.1-1c-0.6-0.6-1.3-1.3-1.9-1.9C98.7,87,98.7,86.9,98.7,86.9z"/>
		<polygon class="st7" points="127.1,171.4 136.1,159.2 84.1,120.4 69.4,140.1 		"/>
		<polygon class="st7" points="119.8,222.7 129.8,223.7 136.1,159.1 119.9,157.5 		"/>
		<polygon class="st8" points="146.4,232.7 137,231.6 126.3,229.3 126.1,230.4 117.9,229.4 118.9,221.2 129.3,222.5 146.8,229.7 		
			"/>
		<polygon class="st7" points="57.7,183 72.2,187.5 91.1,125.3 67.6,118.2 		"/>
		<polygon class="st7" points="6.9,193.6 9.4,203.4 72.3,187.4 68.3,171.6 		"/>
		<polygon class="st8" points="6.6,222 4.4,212.8 2.9,201.9 1.9,202.2 0,194.1 8.1,192.2 10.4,202.5 9.5,221.3 		"/>
		<polygon class="st9" points="8.3,221.6 6.6,222 4.4,212.8 2.9,201.9 1.9,202.2 0,194.1 1.7,193.7 		"/>
		<polygon class="st3" points="89.2,52.7 98.5,54.8 100.7,45.1 91.3,43 		"/>
		<path class="st3" d="M88.6,23.1C87,29.9,87.1,36.6,92,39.1l-1.7,8l9.4,2.1c6.8,1.7,9.3-2.9,10.9-9.7l3.5,0.3l-1.2-9.5l0.8-3.2
			c1.7-6.8-2.5-13.7-9.3-15.4l0,0C97.7,10,90.8,14.2,89.1,21L88.6,23.1z"/>
		<path class="st10" d="M89.9,32.8c4.6,1.3,3.7-7.3,8.4-5.7c4.1,1.4,0.5,4.9,2.7,5.7c3.5,1.3,0.8-12.2,8.2-10.7
			c7.2,1.4-0.6-2.3-0.2-6.8c-4.3,3.1,3-4.8-3.8-6.5l0,0c-6.8-1.7-13.7,2.5-15.4,9.3C89.8,18.2,84,31.1,89.9,32.8z"/>
		<path class="st11" d="M106.9,31.2c-0.2,0.6,0.2,1.3,0.8,1.5c0.7,0.2,1.3-0.2,1.5-0.8c0.2-0.7-0.2-1.3-0.8-1.5
			C107.8,30.2,107.1,30.6,106.9,31.2z"/>
		<polygon class="st11" points="106.7,28.3 111.1,29.6 111.3,28.8 106.9,27.5 		"/>
		<polygon class="st9" points="146.6,231 146.4,232.7 137,231.6 126.3,229.3 126.1,230.4 117.9,229.4 118.1,227.7 		"/>
		<path class="st12" d="M95,30.3c-0.5,1.6,0.2,3.2,1.5,3.6c1.3,0.4,2.7-0.6,3.2-2.2c0.5-1.6-0.2-3.2-1.5-3.6
			C96.9,27.8,95.5,28.7,95,30.3z"/>
		<path class="st13" d="M95.9,30.6c-0.3,1,0.1,2,0.9,2.2c0.8,0.3,1.7-0.4,2-1.3c0.3-1-0.1-2-0.9-2.2C97.1,29,96.2,29.6,95.9,30.6z"
			/>
		<path class="st14" d="M105.4,8.9c-8.1-1.9-16.2,3.2-18.1,11.3l29.4,6.8C118.6,18.9,113.5,10.8,105.4,8.9z"/>
		<polygon class="st15" points="125.2,28.8 114.7,26.6 115,25.1 125.5,27.3 		"/>
		<line class="st16" x1="115.7" y1="103" x2="120.4" y2="93.5"/>
		<path class="st3" d="M144.2,103.1c0.2,1.9,1.8,3.2,3.6,3.1l8.3-0.7c1.9-0.1,3.2-1.8,3.1-3.6l0,0c-0.1-1.8-1.7-3.2-3.6-3.1
			l-8.3,0.6C145.4,99.6,144.1,101.2,144.2,103.1L144.2,103.1z"/>
		<path class="st16" d="M121,93.8c7.6,4.2,17.1,6.7,28.6,5.2c0.5,3.4,0.6,3.8,0.5,7.2c-13.7,2.5-24.9,1.1-33.7-2.8
			C104.4,98,106,85.6,121,93.8z"/>
		<polygon class="st17" points="66.1,123.8 90.3,125.2 102.7,55.1 84.3,50.9 		"/>
		<polygon class="st14" points="102.7,55.1 103.5,59.9 83.8,52.6 84.3,50.9 		"/>
		<polygon class="st14" points="66.1,124.1 90.3,125.7 91.7,117.8 67.9,116.3 		"/>
		<line class="st16" x1="115.5" y1="103.2" x2="120.1" y2="93.7"/>
		<polygon class="st18" points="69.3,110.8 92.6,112.4 91.7,117.8 68,116.3 		"/>
		<path class="st18" d="M76,84c0,0,7.6,0.8,10.2,1.1c2.8,0.3,11.2,1,11.2,1l-1.1,5.6c0,0-8-0.6-10.7-0.9c-2.7-0.3-11-1.1-11-1.1
			L76,84z"/>
		<path class="st19" d="M258.9,171.6c1,2,0.1,4.4-1.9,5.4l-39.5,19.1c-2,1-4.4,0.1-5.4-1.9l0,0c-1-2-0.1-4.4,1.9-5.4l39.5-19.1
			C255.5,168.8,257.9,169.6,258.9,171.6L258.9,171.6z"/>
		<path class="st20" d="M213.1,192.6l-43.4-88.5c0,0-3-5.3-4.4-6.5c-1.4-1.3-3-2-5.7-2H148c-1.3,0-2.4,1.1-2.4,2.4v3.4
			c0,1.3,1.1,2.4,2.4,2.4h10.7c0,0,1.7,0.1,2.5,1.3c0.6,0.8,1.4,2.4,1.4,2.4l43.8,88.4c0.6,1.2,2,1.7,3.2,1.1l2.3-1.1
			C213.2,195.2,213.7,193.8,213.1,192.6z"/>
		<circle class="st21" cx="208.5" cy="200.9" r="19.5"/>
		<circle class="st22" cx="208.5" cy="200.9" r="5.9"/>
		<path class="st3" d="M143.7,103.3c0.3,1.9,2,3.3,3.8,3.1l8.3-0.8c1.9-0.2,3.1-1.9,2.9-3.8l0,0c-0.3-1.9-2-3.3-3.8-3.1l-8.3,0.8
			C144.7,99.7,143.5,101.4,143.7,103.3L143.7,103.3z"/>
		<path class="st16" d="M120.7,94c7.6,4.2,17.1,6.7,28.5,5.1c0.5,3.4,0.6,3.8,0.5,7.1c-13.7,2.5-24.8,1.1-33.6-2.8
			C104.1,98.1,105.8,85.8,120.7,94z"/>
		<path class="st23" d="M84.6,69.9c-0.9-3.1,1-6.3,4.1-7.2c2.5-0.7,5,0.3,6.4,2.3c0,0,0.6,1,0.7,1.3c2.3,5,5.6,10.3,11.1,16.5
			c5.6,6.4,13.3,10.9,13.3,10.9s-0.5,2.3-1.9,4.7c-1,1.8-2.7,4.7-2.7,4.7s-10.1-4.7-18.6-13.4c-7.8-8-12.2-19.6-12.2-19.6l0,0
			C84.7,70.1,84.6,70,84.6,69.9z"/>
		<path class="st18" d="M96,88.8c0,0,2.9-3.5,3.9-4.7c1-1.2,3.9-4.9,3.9-4.9s1.4,1.8,1.9,2.3c0.4,0.5,1.8,2.1,1.8,2.1
			s-2.5,3.3-3.4,4.4c-1,1.2-4,4.8-4,4.8s-0.5-0.4-1.1-1c-0.6-0.6-1.3-1.3-1.9-1.9C96,88.9,96,88.8,96,88.8z"/>
	</g>
</g>
</svg>
