<?xml version="1.0" encoding="utf-8"?>
<!-- Generator: Adobe Illustrator 19.1.0, SVG Export Plug-In . SVG Version: 6.00 Build 0)  -->
<svg version="1.1" xmlns="http://www.w3.org/2000/svg" xmlns:xlink="http://www.w3.org/1999/xlink" x="0px" y="0px"
	 viewBox="0 0 714.6 242.5" style="enable-background:new 0 0 714.6 242.5;" xml:space="preserve">
<style type="text/css">
	.st0{fill:#1C9D92;}
	.st1{fill:#6D6E70;}
	.st2{fill:#CB962C;}
	.st3{fill:#EEC765;}
	.st4{fill:#FDDDC5;}
	.st5{fill:#046455;}
	.st6{fill:#D2761B;}
	.st7{fill:#BBBDBF;}
	.st8{fill:#3E454F;}
	.st9{fill:#332F2D;}
	.st10{fill:#645D5B;}
	.st11{fill:#763C19;}
	.st12{fill:#404040;}
	.st13{fill:#FDEADD;}
	.st14{fill:#F0CFB8;}
	.st15{fill:#007A69;}
	.st16{fill:#4B6282;}
	.st17{fill:#139F87;}
	.st18{fill:#F58721;}
	.st19{fill:#F1F1F2;}
	.st20{fill:#D0D2D3;}
	.st21{fill:#808184;}
	.st22{fill:#58595B;}
	.st23{fill:#A6A8AB;}
	.st24{fill:#FBB56A;}
	.st25{fill:#74D1C9;}
</style>
<g id="Layer_3">
	<g>
		<path class="st0" d="M225.1,58.9c-1.2-0.5-0.6,1.8-1.8,2.1c-1.2,0.3-2.6,1-1.7,1.3c1,0.3,3.1-0.1,3.4-0.6
			C225.2,61.3,225.5,59.1,225.1,58.9z"/>
		<path class="st0" d="M215.9,62c-1.4-0.1-2.9,0-3.1,0.6c-0.2,0.6,1.3,1,2.3,1c1,0,2.9-0.7,2.5-0.8C217.2,62.6,215.9,62,215.9,62z"
			/>
		<path class="st0" d="M223.8,49.7c-0.5,0.2,0.8,1.1,1.3,1.1c0.5,0,1.3-1.6,0.4-1.6C224.5,49.3,225,49.3,223.8,49.7z"/>
		<path class="st0" d="M228,38.1c0,0,0,0,0.7,0.7c0.7,0.7,1.9,1,3,1.1c1.1,0.1,1.1-0.7,0.2-1.6c-0.8-0.8-1.1-0.7-1.8-0.8
			c-0.7-0.1-0.8-1-2.8-1c-1.9,0-1.7-1.1-1.9-1.7c-0.2-0.6,1.8-1.7,2.3-1.5c0.5,0.1,2.2-0.3,2.2-0.3s3.1-1.4,3.5-1.1
			c0.4,0.3,2.2-0.3,3-0.6c0.8-0.3,1.3-1.8,1.3-1.8s1.1,0.4,1.7,1.1c0.6,0.7,1.9,0,2.3,0c0.4,0,2.3,0.5,2.3,0.5s1.9-0.3,2.9-0.4
			c1-0.1,3.7,1.1,4.7,1.4c1,0.3,6-1,6.5-1c0.5,0,2.2,2.5,3.7,2.1c1.6-0.4,2.3,0.3,2.6,0.4c0.4,0.1,0.7,0.1,1.3,1
			c0.6,0.9,1.2,0.1,2-0.4c0.8-0.6,0.7-1.1,0.7-1.1s0,0,0.7-0.1c0.7-0.1,1.2,0.3,3.2,0.4c2,0.1,1.6-0.4,3-1c1.4-0.6,2.9,0.7,3.4,0.6
			c0.5-0.1,1.1-1.3,1.4-0.7c0.4,0.6,1,1.7,1,1.7s1.6-1.4,2-1.4c0.5,0,3.2,0.3,4.1,0.1c0.8-0.1,2.8,0.2,3.5,0.9
			c0.7,0.7,2.5,0.6,3.5,1.3c1,0.7,1.9-0.6,1.4-0.8c-0.5-0.3-1.7-1.4-1.7-1.4s-1.8-2.5-2-3c-0.2-0.4-0.6-0.4-1.1,0.7
			c-0.5,1.1-2.3,1.1-4.3,1.3c-2,0.1-0.7-1.1-3-1.3c-2.3-0.1-1.4-1.1-0.7-1.1s1.2-1.7,1.4-2.7c0.2-1,1.1-0.9,2.8-0.7
			c1.7,0.1,2.2-0.3,3.8,0c1.7,0.3,1.6-0.8,3.2-0.7c1.7,0.1,0.8,0.4,1.8,1.1c1,0.7,1.6,0.6,2.9,1.3c1.3,0.7,0.8,0.7,1.4,0.9
			c0.6,0.1,2.6-0.3,3.8-0.4c1.2-0.1,2.2-0.3,2.8,0.6c0.6,0.8,0.5,1.8,1.3,2.5c0.8,0.7-0.5-2.5-0.5-3.7c0-1.1,1.7-0.1,2.8-0.1
			c1.1,0,2.3-0.4,2.5,0.1c0.2,0.6-1.6,1.4-0.5,2.7c1.1,1.3,1.8,1.7,2.8,1.7c1,0,3.1,0.3,2.2,1.8c-1,1.6-3.5,1.4-4.3,1.4
			c-0.8,0-2.3,0.6-1.9,1.4c0.4,0.8,2.3,0.4,3.6,0.4c1.3,0,5.4,0.4,6.5,0c1.1-0.4,0.8-2.1-0.4-2.5c-1.2-0.4-0.2-1.3,1-1
			c1.2,0.3,2.4-0.4,2.2,0c-0.2,0.4,0.1,1.4,0.1,2.5c0,1.1,0.4,1.8,1.2,1.6c0.8-0.3,0.7-1.2,1.5-1.4c0.8-0.1,0.6-1.8,0.1-3
			c-0.5-1.3-0.8-2-0.7-2.7c0.1-0.7,1.4-0.8,2.2-0.1c0.7,0.7,1.7,2.1,1.7,2.1s1.4,1,1.9,2.1c0.5,1.1,0.6,0.9,1.6,0.1
			c1-0.7,1.2-0.6,2,0.1c0.8,0.7,0.2,2.1,0.2,2.5c0,0.4,1.2,0,1.4-0.8c0.2-0.8,1.2-0.8,1.8-1.1c0.6-0.3,0.6-2,0.6-2s-1.6-0.4-3.1-0.3
			c-1.6,0.1-2-0.1-3.2-1.1c-1.2-1-0.5-1.7-1.1-2.7c-0.6-1,1.9-1.6,3.5-2.4c1.6-0.8,3.1-0.3,2.8,1.8c-0.4,2.1-0.6,1.8,1.2,1.4
			c1.8-0.4-0.1-2.3,0.7-2.4c0.8-0.1,3-0.6,3.7-0.4c0.7,0.1,4.7-0.4,5.6-0.4c1,0,2.5,1,3.6,1.7c1.1,0.7,4,1.7,4.7,2.1
			c0.7,0.4,5.8,1.3,6.2,1.4c0.5,0.1,0.5,1.8,1,3.3c0.5,1.4,1.8,0.4,2.3,0.4c0.5,0,2.2,1,2.6,1.7c0.5,0.7,4.1,1.3,4.1,1.3
			s-0.8,1.3-1.2,1.7c-0.4,0.4-1.2,0.7-1.9,1.3c-0.7,0.6-1.6-0.1-2.5-0.8c-1-0.7-2.6-1.1-3-0.9c-0.4,0.3-0.1,0.9,0.1,1.3
			c0.2,0.4,1.8,1,2.8,1.8c1,0.9,0.7,1.7,0.8,2.8c0.1,1.1-1-0.4-2.2-0.7c-1.2-0.3-1.3,1.1-1.3,1.1s-1.6-0.1-2.3-0.1
			c-0.7,0,0,0-1.3-1.1c-1.3-1.1-1.1,0.7-1.8,0.1c-0.7-0.6-1.4-1.4-1.8-1.1c-0.4,0.3-1.6-1.3-2.3-1.1c-0.7,0.1-3.6-0.4-4.3-0.1
			c-0.7,0.3-1.3,0.3-1.9,0.6c-0.6,0.3-0.8-2-0.5-2.7c0.4-0.7,1.2-0.8,2.8-0.4c1.6,0.4,1.7,0,2-0.7c0.4-0.7,0.7-1.4,2.4-2
			c1.7-0.6-0.1-1-0.6-1.3c-0.5-0.3-1.1-0.8-1.4,0c-0.4,0.9-1.2,1.8-1.2,1.8s-1,0-2.3-0.1c-1.3-0.1-0.4-0.7,0.2-1
			c0.6-0.3,1.3-2,0.7-2.4c-0.6-0.4-0.8-0.7-1.9-0.4c-1.1,0.3-0.4-1-1.1-1.4c-0.7-0.4-0.5,0.3-0.5,0.9c0,0.6-1.1,0.4-1.1,0.4
			s-1.7-0.3-2.3,0c-0.6,0.3-1.7,0.8-1.3,1.3c0.4,0.4,1.6,0.4,1.9,1.7c0.4,1.3-1.6,1.6-1.9,1.7c-0.4,0.1-1.8,0.7-1.8,0.7
			s-1.4-0.4-2.6-0.4c-1.2,0-1.6,0.1-1.3,0.7c0.2,0.6,0.8,0.3,1.2,0.3c0.4,0,0.4,0.7,1.4,0.4c1.1-0.3,0.8-0.7,1.8,0.4
			c1,1.1,1.9,1,3.5,2c1.6,1-0.2,2.1-1.1,2.1c-0.8,0-0.8-0.9-1.3-1.7c-0.5-0.9-2.4,0.1-2.4,0.1s-1.6,1-2.4,1c-0.8,0-1.4-0.1-0.4-1.1
			c1.1-1-1.3-1.1-1.3-2.6c0-1.4-0.7,2.4-0.7,3.1c0,0.7-0.7-0.9-2.8-0.6c-2,0.3-1.7,1.1-4.3,3.1c-2.6,2-1.9,1.5-1.7,3.4
			c0.2,1.8-0.4,2.2,0.6,2.4c1.1,0.3,0.7,2.4,1.6,2.3c0.8-0.1,1.4-0.8,3.1,0.1c1.7,1,2.5,1.3,4.6,1.7c2,0.4,3,0.2,4.1-0.1
			c1.1-0.3,2.1,1.1,2.1,2.1c0,1,0.7,1.1,0.6,2.4c-0.1,1.3,1.3-1.1,1.3-1.1s0.6,2.1,0.1,2.4c-0.5,0.3,0.1,1.6,0.7,1.4
			c0.6-0.1,1.4,0.4,2.2-0.3c0.7-0.7-0.4-2.8-0.4-3.7c0-0.8-0.7-1.3-1.1-2.1c-0.4-0.8,1-1,1.4-0.1c0.5,0.8,1.3,0.1,2.2-0.6
			c0.8-0.7,0.8-2,0.8-2s-1.4-2.3-2.5-2.8c-1.1-0.6-0.6-0.7,0.5-1c1.1-0.3,0-0.7,0.2-2.3c0.2-1.6,0.2-2.5,0.8-2.5
			c0.6,0,2.8-0.4,4.6-0.3c1.8,0.1,2.6,1.7,3.8,1.8c1.2,0.1,3.1,0.4,3.5,1.1c0.4,0.7-2.1,1.1-1.3,2.3c0.8,1.1,1.8,0.7,2.6,1.1
			c0.8,0.4,1.8,0.1,2.9-1.6c1.1-1.7,1.6-1.8,1.9-1.6c0.4,0.3,2.6,3.4,3.2,4.1c0.6,0.7,1.2,2.8,1.3,3.5c0.1,0.7,2.4,0.2,2.9,0.2
			c0.5,0,2.3,1.6,2.5,2.4c0.2,0.8,0.7,1.1,2.3,1.6c1.6,0.4,0,2-0.4,2.8c-0.4,0.9-0.6,1.1-1.1,2.1c-0.5,1,0,0,0.6,0.4
			c0.6,0.4,0.8,1,1.8,0.7c1-0.3,1.4,0,1.8,0.8c0.4,0.9,0.8,1.6,1.2,2.3c0.4,0.7,0,1.8-0.5,1.1c-0.5-0.7-2-0.3-2-0.3s-0.7,0.8-1,0.4
			c-0.2-0.4-0.7-1-1.6-0.7c-0.8,0.3-1.7,0-2.6,0.1c-1,0.1-1.3-0.6-0.7-1.1c0.6-0.6,0.7-2.7,1.9-3.5c1.2-0.9,0.8-2.1,0-2.1
			c-0.8,0-1.2,1.3-1.7,1.6c-0.5,0.3-2.1-0.5-3,0.2c-0.8,0.7-2.2,1.2-1.4,1.5c0.8,0.3-1.2,1.4-1.9,1.4c-0.7,0-0.5-1.8-0.5-2.6
			c0-0.7-1,0.4-1,0.4s-1.9-1.3-2.6-0.4c-0.7,0.9-3.3,0.5-4.1,1.3c-0.8,0.9-1.2,3.1-1.2,3.1s0.7-0.4,2.2-0.8c1.4-0.4,1.3-0.3,2.5-1
			c1.2-0.7,2.4-1,3.2,0.3c0.8,1.3-0.4,2-0.4,2s0.5,1,1,1.3c0.5,0.3,0.6-0.3,1.4-0.9c0.8-0.6,0.5,1.1,0.7,1.7
			c0.2,0.6,1.1,0.6,1.6-0.1c0.5-0.7,0.8-1.3,1.2-0.8c0.4,0.4,0.7,1.4,1.1,2.4c0.4,1-2.5,1.3-3,1.4c-0.5,0.1-2.8,0.7-3.1,0.9
			c-0.4,0.1-1.6,1.4-2.5,1.4c-1,0-0.8-1.7-1-2.7c-0.1-1-1.3,0.1-1.4,0.6c-0.1,0.4-1.2,0.3-2,0.4c-0.8,0.1-2.3,1.1-2.3,2.3
			c0,1.1,1.7,2.3,1.3,2.9c-0.4,0.6-3.1,0.3-4,0.1c-0.8-0.3-2,0.4-1.7,1c0.4,0.6,0.1,1.4-0.7,1.3c-0.8-0.1-1,0.8-0.6,1.6
			c0.4,0.7-1.1,2.1-1.4,1.6c-0.4-0.6-1.1-0.9-1.1,0c0,0.8,0.7,2,1.4,3.2c0.7,1.1-2,1.4-2.9,2.2c-0.8,0.8-2.7,3.8-3.9,4.3
			c-1.2,0.6-2.2,2.3-1.6,3c0.6,0.7,1.3,3.7,1.7,4.7c0.4,1-0.1,3.8-1.2,3.7c-1.1-0.1-0.5-1.8-1.6-2.3c-1.1-0.4-1.7-3-1.9-4.7
			c-0.2-1.7-0.5-0.7-1.2-0.1c-0.7,0.6-1.4-1.1-1.8-1.6c-0.4-0.4-2.1,0.8-3.6,0.7c-1.4-0.1-2.2,0.2-2.2,0.6c0,0.4-0.2,1.7-1.6,0.8
			c-1.3-0.8-1.6-0.8-2.9-0.8c-1.3,0-2.5-0.1-2.8,0.4c-0.2,0.6-1.6,1.8-2.4,2.1c-0.8,0.3-2.4,1.7-1.7,2c0.7,0.3,0.7,2.3,0.2,3.4
			c-0.5,1.1-0.4,3.1-0.1,5.1c0.2,2,1.7,3.3,3,4.5c1.3,1.3,1.8,1.7,3.1,0.6c1.3-1.1,1.8-0.4,2.2-0.3c0.4,0.1,1.3-0.7,1-2
			c-0.4-1.3,0.5-2.4,1.6-2.3c1.1,0.1,2.6-0.4,3.5-0.3c0.8,0.1,1.3,2.8,0,4c-1.3,1.1-0.6,2.8-0.8,4.1c-0.2,1.3-1.3,1.6,0,1.6
			c1.3,0,1,0.3,1.8,0.4c0.8,0.1,1.7-0.8,2.5-1c0.8-0.1,3,2.1,2.6,3.3c-0.4,1.1-0.7,3.1-0.6,5c0.1,1.8,0.6,2,0.8,2.5
			c0.2,0.6,1.2,1.8,2.3,1.3c1.1-0.6,2.2-1,2.5-1.6c0.4-0.6,2.6,1,2.4,1.4c-0.2,0.4,0.8,0.8,1.6,0.4c0.7-0.4,1.1-1.1,1.8-2.3
			c0.7-1.1,1.9-2.1,2.5-2.3c0.6-0.1,2-1.8,3-1.6c1,0.3-0.4,1.7-0.5,2.5c-0.1,0.9,0,3.3,0.5,3.4c0.5,0.1,0.2-1.7,0.8-3
			c0.6-1.3,1.8-2,2.4-2c0.6,0,1.1,3,1.9,2.1c0.8-0.9,2.5-0.7,2.9,0.1c0.4,0.8,0.7,1.3,0.7,1.3s0.6-0.6,0.6-1.3
			c0-0.7,1.9-1.4,3.1-0.6c1.2,0.9,0.7,1.1,1.3,1.3c0.6,0.1,1.2-1.8,1.6-2c0.4-0.1,0,2.3-0.8,3.5c-0.8,1.3,0.7,0.9,0.7,0.9
			s0,0,0.4,0.4c0.4,0.4,1.6-0.4,2,0.4c0.5,0.8,1.3,1.1,2,2.7c0.7,1.6,1.5,0.2,3-0.1c1.4-0.3,3.5,1.8,4.9,3.6
			c1.4,1.8,1.2,3.3,2.2,3.3c1,0,1.2,1.6,1.2,2.1c0,0.6-2.2,1.8-3.4,2.1c-1.2,0.3-1.2,1.7,0.7,1.3c1.9-0.4,1.1-1.3,2.3-1.7
			c1.2-0.4,2.4,0.6,1.3,2.3c-1.1,1.7-3.2,1.8-1.3,2.1c1.9,0.3,0.8-0.3,1.9-2c1.1-1.7,1-1.1,1.7-1.1c0.7,0,2.3,0.4,2.9,1
			c0.6,0.6,2.2,1.4,3.1,2.1c1,0.7,2.2,0.4,2.9,0.1c0.7-0.3,2.8,0.9,3.5,2c0.7,1.1,2.5,1.3,3.4,1.7c0.8,0.4,2.2,2.1,2.3,3.5
			c0.1,1.4-1.3,4.4-1.4,5.1c-0.1,0.7-2,3.3-3.8,5c-1.8,1.7-0.7,3.7-0.6,4.5c0.1,0.9-1.2,4-0.8,4.7c0.4,0.7-0.5,2.3-1.2,3.3
			c-0.7,1-1.2,2.8-1.7,3.7c-0.5,0.9-2,0.6-3.5,1c-1.4,0.4-2.2,0.9-2.2,0.9s-2.5,1.4-4,2.6c-1.4,1.1,0.5,3.1-0.2,4.7
			c-0.7,1.6-1.3,0.2-2,2c-0.7,1.8-1.2,1.5-1.8,2c-0.6,0.4-1,1.6-1.1,2.7c-0.1,1.1-1.3,2.3-2.9,4c-1.6,1.7-2.5,1.4-4.2,0.8
			c-1.7-0.6-1.4-5.4-1.7-4.7c-0.2,0.7-1.1,3.2-0.8,3.6c0.2,0.4,1.9,2.1,2.5,2.5c0.6,0.4,0.5,1.1,0,1.8c-0.5,0.7-1.8,3.3-2.3,3.4
			c-0.5,0.1-4.2,0.7-4.9,0.3c-0.7-0.4-1.1,1-1,1.8c0.1,0.8,0.7,1.8-0.6,1.6c-1.3-0.3-3.1-1.3-3.1-0.6c0,0.7,0.4,2.3,1.1,2.3
			s1.4-0.6,1.1,0.4c-0.4,1-1.3,1.8-1.8,2.3c-0.5,0.4-1.1,1.8-2.3,2.8c-1.2,1-1.2,1.6-1,2c0.2,0.4,2,0.1,2.4,0.4
			c0.4,0.3-0.4,2.3-0.8,2.7c-0.5,0.4-2.5,2.4-3.4,3c-0.8,0.6-0.8,2.3-0.6,3.1c0.2,0.9,2.2,3,3.2,3.4c1.1,0.4,3.4,0.3,3.1,0.7
			c-0.2,0.4-2.9,0.9-3.2,1c-0.4,0.1-2.3,0.7-3.2,0.7c-1,0-2.8-1.1-3.1-1.1c-0.4,0,0.2-0.6,1.4-1.7c1.2-1.1-0.5-2.4-0.7-0.8
			c-0.2,1.6-0.7,2-1.3,2c-0.6,0-1.3-1-1.7-1.4c-0.4-0.4-1.9-0.8-1.7-2.5c0.2-1.7-0.7-1.6-1.4-2.3c-0.7-0.7,1-1.3,0.7-2
			c-0.2-0.7-1.3-0.3-1.4-1.3c-0.1-1,1-2.4,1.1-2.8c0.1-0.4-0.7-1.3-0.8-2c-0.1-0.7,0.5-1.4,1.3-2.5c0.8-1.1,1.4-2.6,1.4-3
			c0-0.4-0.6-2-0.6-3.1c0-1.1,0.6-1.6,0.8-3.1c0.2-1.6-0.8-1-0.8-2.3c0-1.3,1.2-0.8,1-2.1c-0.2-1.3,0.6-2.1,1-3
			c0.4-0.9,0.7-2.3,1.2-3.3c0.5-1-0.5-3.3-0.5-3.7c0-0.4,1.6-1,0.8-1.8c-0.7-0.9,0.6-1.1,1.3-1.8c0.7-0.7-0.5-3.1-0.1-5.7
			c0.4-2.5,0.7-6.9,0.7-7.4c0-0.4,0.1-2.1-0.5-3.3c-0.6-1.1-1.3-2-2.2-2.4c-0.8-0.4-1.9-1.7-2.5-1.8c-0.6-0.1-4.2-1.3-4.2-3.3
			s-1.3-3.6-1.5-5c-0.2-1.4-2-4.5-2.2-5.9c-0.1-1.4-2.6-1.8-3-3.4c-0.4-1.6,0.5-2.6,0.8-3.6c0.2-1-0.2-3.2-0.3-3.9
			c-0.1-0.7,1.1-3,1.8-3.5c0.7-0.4,2-1.9,2.5-1.9c0.5,0,0.4-1.6,0.8-3.1c0.5-1.6-0.2-3.7-0.6-4c-0.4-0.3-0.7-2.1-1.3-2.7
			c-0.6-0.6-1.8-0.3-1.8-0.3s0.2,1.3-0.8,2c-1.1,0.7-1.3-0.1-1.7-0.6c-0.4-0.4-1.7-0.6-2.3-1.3c-0.6-0.7-1.6-1.7-2.3-2.1
			c-0.7-0.4-2.5-0.8-2.3-2.5c0.1-1.7-0.9-2.7-1.4-3c-0.5-0.3-1.4-1-2-0.6c-0.6,0.4-1.7-0.8-2.5-0.7c-0.8,0.1-2.5-1.7-3.1-2.4
			c-0.6-0.7-1.1-1.7-2.2-1.7c-1.1,0-1.2,0.4-1.9,1.4c-0.7,1-1.8-0.7-2.2-1.1c-0.4-0.4-2.1,0.3-3.4,0.3c-1.3,0-1.9-2.7-2-3.3
			c-0.2-2.1-3.8-2.1-4.7-2.7c-0.8-0.6-1.7-2.7-1.3-3.3c0.4-0.6-0.6-2.4-0.6-2.4s-1.7-2.3-2.3-2.3c-0.6,0-2.5-4-3.6-5.1
			c-1.1-1.1-3.6-3.7-4.1-5c-0.5-1.3-0.6-3.3-1.8-2.3c-1.2,1-0.2,2,1,3.1c1.2,1.1,1,2.3,2.6,3.8c1.7,1.6,1,3.1,1.7,3.8
			c0.7,0.7,3.2,2.4,2.2,3.5c-1.1,1.1-2.2-1.4-2.6-1.6c-0.5-0.1-1.6-0.4-1.4-1.3c0.1-0.8-1-1.6-1.8-2.8c-0.8-1.3-1.2-0.6-2.3-0.6
			c-1.1,0-0.1-1.6,0.5-2.3c0.6-0.7-0.6-1.7-1.3-2c-0.7-0.3-1.7-3.5-2.6-5.5c-1-2-1.7-3-2.8-2.8c-1.1,0.1-2.9-0.9-3.6-1.5
			c-0.7-0.6-0.5-3.7-1.7-5.2c-1.2-1.4-2.3-4.1-2.2-5.7c0.1-1.6,0.5-5.5,0.5-6.5c0-1-0.9-2.9-0.9-3.3c0-0.4-0.3-1.7-0.8-1.8
			c-0.5-0.1-2-1.5-3.1-1.5c-1.1,0-1.6-2-1.2-3c0.4-1-1-2.7-1.6-2.7c-0.6,0-1.6-1.8-1.9-2.8c-0.4-1-1.3-1-1.1-0.4
			c0.2,0.6-0.1,1.6,0.5,1.8c0.6,0.3,1.1,2.5,0.6,2.8c-0.5,0.3-1.6-0.8-2.8-1.6c-1.2-0.7-0.7-3.5-0.7-4.2c0-0.7-1.7-1.4-2.4-1.4
			c-0.7,0-1.4,0.1-1.6-1.7c-0.1-1.8-2.3-2.8-3-2.8c-0.7,0-4.8-1.4-6-1.4c-1.2,0-3-1.7-3.8-1.2c-0.7,0.6-2-1-2.8-1
			c-0.7,0-0.3,1.9-1.7,2.9c-1.3,1-2.2-0.9-2.9-0.2c-0.7,0.7-2.5,1.4-1.9-0.3c0.6-1.7,0.6-2-0.4-1.6c-1,0.4-1.2,1.6-1.2,2.3
			c0,0.7-1.7,1.8-1.7,1.8s1.6,0.1,2.2,0c0.6-0.1,0.1,1.6-0.5,2c-0.6,0.4-1.4,1.6-2.4,1.3c-1-0.3-1.1-1.3-1.7-1.4
			c-0.6-0.1-1.3,1.8-3.4,3.1c-2.2,1.3-2.5-0.6-3.3-0.1c-0.8,0.4-3.8,1.7-4.9,1.8c-1.1,0.1-0.8-1.6-0.2-1.6c0.6,0,2.9-1.3,3.5-1.7
			c0.6-0.4,3.2-1.6,4-2c0.7-0.4,1.9-1.1,1.4-2c-0.5-0.9-2,0.4-2,0.4s-1.2-1.3-1.6-1.6c-0.4-0.3-1.1,1.1-1.1,1.1s-1.6-0.3-1.2-1.8
			c0.4-1.6-0.8-1.6-1.1-0.8c-0.2,0.7-2.3,1.8-2.4,1.1c-0.1-0.7-1.9-2.1-2.4-3.3c-0.5-1.1,0.5-1.3,1.6-2.3c1.1-1,2.6-1.3,4-1.1
			c1.3,0.1,2.2-1.7,1.7-1.8c-0.5-0.1-1.3-0.3-2,0.4c-0.7,0.7-2.5,0.6-2.5,0.6s-2.6,0-3.7-0.8c-1.1-0.9-1.7-2.1-1.7-2.1
			s2.2-1,3.8-1.1L228,38.1z M337.7,80.3c1.2,0.2,1.2-1.8,1.1-2.4c-0.1-0.6-0.1-3,0.4-3.4c0.5-0.4,1.1-1.7,2.4-1.8
			c1.3-0.1,2.2,1,2,2.3c-0.1,1.3,0.2,2.5,0.7,2.5s1.9-1,1.4-1.8c-0.5-0.8,0.4-3.7,0.4-2.7c0,1,1,1.7,1.6,1.6
			c0.6-0.1-0.6-2.7-1.4-2.8c-0.8-0.1-2.5-0.1-2.9,0c-0.4,0.1-2.4-0.7-3.4-0.6c-1,0.1-2.4,0.6-2.9,1.7c-0.5,1.1,0,3.3-0.1,4.1
			C336.9,77.8,336.7,80.2,337.7,80.3z M344.4,80.3c0.3,0.6,1.6,0.1,2.3-0.7c0.7-0.8,2.3-1.1,2.8-1.8c0.5-0.7,0.8-0.6,2-1.1
			c1.2-0.6,2.2-0.7,1.7-1.4c-0.5-0.7-3,0-3.4-0.3c-0.4-0.3-2.9,3.1-2.9,3.1s-2.2,1-2.3,1.4C344.6,79.9,344.1,79.5,344.4,80.3z
			 M332,69.4c0,0.8,1.2,0.8,1.9,0.4c0.7-0.4,1.8-0.7,2.3-0.8c0.5-0.1,0.2,0.7,1.3,0.7c1.1,0,2.4,0.4,2.8,0.3c0.4-0.1,1.4-1.8,0.6-2
			c-0.8-0.1-2.2-1.1-2.9-2c-0.7-0.8-2.4,1.1-4,1.8C332.5,68.6,332,68.3,332,69.4z M282.9,64.7c-1-0.4,0.4,1.7,1,2.1
			c0.6,0.4,1.8,0.4,1.9,1.1c0.1,0.7,0.5,2.4,1.1,2.3c0.6-0.1,0.6-1.7,0.1-2.3c-0.5-0.6-2.3-2.3-2.6-2.3
			C283.9,65.7,283.2,64.9,282.9,64.7z"/>
		<path class="st0" d="M342.1,45.3c-0.3,0.4,1.4,1,1.8,0.5C344.1,45.2,342.9,44.3,342.1,45.3z"/>
		<path class="st0" d="M346.7,46.1c-1.3,0.4-0.1,1.5,0.7,1.1C348.2,46.9,347.8,45.8,346.7,46.1z"/>
		<path class="st0" d="M287.1,23.1c-0.2,0.6,0.7,0.6,1.8,0.6c1,0,2.7,0,3.2-0.3c0.5-0.3,2.9-0.9,2.8-0.1c-0.1,0.9,1,2.2,1.5,2
			c0.6-0.2,1.7-1.4,2.2-0.9c0.6,0.5,0.6,1.6,1.2,1.9c0.6,0.3,2.1,0.3,2.8,0c0.7-0.3,2.7-0.3,3.6-0.1c0.9,0.2,3.4,0.8,3.7,0.2
			c0.2-0.6,1-0.7,1-1.2c0.1-0.6,0.5-2.4,0.5-2.4s-0.5-1-1.3-0.6c-0.8,0.5-1,0.8-1.8,0.6c-0.7-0.2-0.7-1.7-2-1.4
			c-1.3,0.3-1.5,1.1-1.9,1.5c-0.4,0.4-1.3,0.7-1.6,0.5c-0.3-0.2-2.2-1.4-2.2-1.4s-3.8-0.2-4-0.8c-0.2-0.6-0.8-1.5-2.6-1.3
			c-1.8,0.2-4.8,1.4-5.3,1.4c-0.5,0,0.6,1.1-0.1,1.1C288.1,22.4,287.3,22.3,287.1,23.1z"/>
		<path class="st0" d="M300.7,19.2c-0.9,0.4-0.7,1.4-0.1,1.4c0.6,0,2.2-0.7,2.7-0.2c0.5,0.5,1.7,0.1,1.6-0.4
			c-0.1-0.5,0.5-2.4-0.5-2.5C303.5,17.5,302.1,18.7,300.7,19.2z"/>
		<path class="st0" d="M311.5,18c-0.1,0.7,0.6,1.2,1.6,1.2c1,0,3-0.6,3.2-0.1c0.2,0.5-0.1,0.9,1,1c1.1,0.2,1.6,0.4,2.2,0.4
			c0.6,0,0.4-1.2-0.2-2.1c-0.6-0.8-0.4-0.8-1.8-1.2c-1.4-0.5-2.9-0.5-3.8-0.4C312.7,17,311.7,16.7,311.5,18z"/>
		<path class="st0" d="M313.1,22.4c-0.6,0.6,0,2.5-0.2,2.7c-0.2,0.2,0.1,1,0.7,0.9c0.6-0.2,1-2,1.4-2s3-0.7,3.4,0.4
			c0.4,1,0.4,0.6,1.5,0.7c1.1,0.1,2-1.3,2.1-1.8c0.1-0.5-0.6-1.4-2.1-1.2C318.3,22.2,313.7,21.7,313.1,22.4z"/>
		<path class="st0" d="M316,27.4c-0.6,0.4-0.2,1.8,0.6,1.9c0.9,0.1,2.4-0.7,2.6-0.1c0.2,0.6,0.7,3.1,2.2,2.3
			c1.4-0.8,1.4-1.6,1.8-1.7c0.4-0.1-0.1-2.2-0.7-2.6c-0.6-0.5-2.7-0.2-3.3,0.1C318.6,27.5,316.9,26.7,316,27.4z"/>
		<path class="st0" d="M325,28.2c0.1,0.3,0.7,0.8,1.8,0.6c1-0.2,2.6-0.4,3.3-0.5c0.7-0.1,0.9-1.5,0.1-1.6c-0.8-0.1-1.4-0.9-2.2-0.7
			C327.3,26.3,324.8,27.5,325,28.2z"/>
		<path class="st0" d="M324.8,24.2c-0.3,1,3.2,1.5,2.8,0.4C327.2,23.5,325.2,23.1,324.8,24.2z"/>
		<path class="st0" d="M325.4,19.4c-1-0.3-2.7-0.7-2.7-0.9c0-0.3-0.5,1.3,0.4,1.8c0.9,0.5,2.3,1.3,3.4,1.8c1,0.5,3,0.6,3.7,1.5
			c0.6,0.9,2.8,1.7,2.8,1.7l2.6,0.3c0,0,1.8-0.5,3.6-0.3c1.8,0.2,4.6,0.5,6.1,0.4c1.5-0.1,1.8-0.7,1.9-1c0.2-0.4-2.8-1.1-3.5-1
			c-0.7,0.1-4.8,0.1-6,0c-1.2-0.1-2.7-0.1-3.7,0c-1,0.1-1.7-0.8-2.4-1.2c-0.7-0.5-2.3-2-3.3-2.2C327.3,20,327.4,20,325.4,19.4z"/>
		<path class="st0" d="M425.7,39.1c-0.3,0.6-1,0.7-0.3,2c0.6,1.3,1.1,2.1,1.7,2c0.6-0.1,2.5-0.2,2.7,0.6c0.2,0.8,0.9,1.4,2.2,0.9
			c1.4-0.5,2.5-0.8,2.8-1.3c0.3-0.6,2.5-0.7,2.5-0.7s1.8-1.6,1.1-2.3c-0.6-0.7-2.2-1.1-2.9-1.2c-0.7-0.1-1.4,0.7-3,0.7
			c-1.6,0-2.6,0.8-3.3,0C428.5,39,425.9,38.6,425.7,39.1z"/>
		<path class="st0" d="M357.6,20.4c0.9,0.8,1.4,0.3,2.5,0.6c1.1,0.3,2,2.4,2.6,2.6c0.6,0.3,1.4,0,1.8-0.6c0.4-0.6,0.9-2.5,0.9-2.5
			s0,1.9,0.9,2.3c0.9,0.4,3.1-0.3,3.7-0.2c0.6,0.1,4,0.7,5,1.2c1,0.6,3.3,0.9,3.9,2.2c0.7,1.2,0.7,5.5,1.1,5.9
			c0.4,0.5,1.6-1.5,1.9-2c0.3-0.5,1.8-0.2,2.3,0.5c0.5,0.7,1.7,2.3,1.6,2.9c-0.1,0.7-0.3,1.7-0.7,1.3c-0.4-0.4-1.2-0.3-0.9-1
			c0.3-0.8,0.4-2.4-0.1-2.4c-0.6,0-1.1,0-1.1,0s-1.1-0.4-1.8,1c-0.7,1.4-0.1,2.8,0.4,2.8c0.5,0,1.7,0,1.7,0.4c0,0.4-1.2,1.5-1.2,2.2
			c0.1,0.7,1,2.9,1.3,3.4c0.3,0.5,1.8,0.9,2.3,1c0.4,0.1-1,0.2-0.7,0.8c0.4,0.7,0.9,2.3,1.8,2.6c0.8,0.4,3.1,2.1,3.4,2.8
			c0.3,0.8,2-0.6,2.4-0.7c0.4-0.1,0.3,2,1.3,2.1c1,0.1,1.4-0.2,2.3-1c0.9-0.9,0.7-2,0.7-2.8c0.1-0.9,0-1.5,1-1.2
			c0.9,0.3,1.5-0.2,1.4-1.1c-0.1-0.9-0.9-2.1,0.7-2.4c1.5-0.3,2.3-1.5,3.3-1.5c0.9,0,3.6,0.5,3.9,0c0.3-0.5,1.5-3.3,2.3-3.4
			c0.8-0.1,2.9,0.4,4.8,0c1.9-0.4,3.9-1.8,4.6-1.7c0.7,0.1,2.3,0.1,1.8-0.5c-0.5-0.6-1.2-1.9-2.3-1.9c-1.1,0-1.3-2.9-1-2.9
			c0.3,0,3,1.1,2.9,2.1c-0.1,0.9,0.4,2.2,1.9,1.8c1.5-0.4,1.2-1.8,0.9-2.2c-0.3-0.4-0.5-1.3-0.8-2c-0.3-0.7-1-2.7,0.5-2.9
			c1.5-0.2,4.4,2,4.3,0.5c-0.1-1.5,0-3.1,0.4-4c0.4-0.8,1.4-1.4,0.9-1.7c-0.5-0.3-1.2,0.4-1.7-1c-0.5-1.4,0.4-2.5,1-3
			c0.6-0.6,3.7-4.2,5.3-4.8c1.7-0.6,2.8-2.7,1.7-3.2c-1.2-0.5-3.5-1.3-5,0.2c-1.5,1.5-2.4,2.9-4.2,2.5c-1.8-0.5-2-3-3-4.3
			c-1.4-1.9-0.6-5.6-2.1-5.3c-1.5,0.3-1.5,0.3-1.5,0.3s-1.8-0.4-2.9-0.1c-1.5,0.4-2.4,1.4-3.2,1.2c-1.6-0.4-3.1,0.6-3.5,0.7
			c-3.6,0.9-6.5-0.3-7-0.4c-0.4-0.1,2.5,0.4,4.8,0c1.7-0.3,4.7-1,6.1-1.3c1.4-0.3,0.3-1-0.2-1c-1.8-0.2-4.7-1.1-6.9-1.3
			c-1.7-0.1-2.9,0.5-4.6,0.6c-2.2,0.1-4.9-0.1-6.6,1.2C393,2.9,391,3,390.8,3.2c-0.9,1.1-1.7,4-2.5,3.2c-0.8-0.8-1-2.6-2-1.9
			c-1,0.8-0.1,2.6-1,4c-0.9,1.3-3.4,1.1-4.1,0.7c-0.7-0.5-1.5-0.8-4.4-0.7c-2.9,0.2-6.1,1.3-5.5,2.5c0.7,1.1-1.3,1.8-1.8,1.2
			c-0.5-0.6-2.8,0.7-2.7,1.8c0.1,1.1-0.4,2.5-1.6,2.2c-1.2-0.3-2.1,0.7-2.2,1.6c-0.1,0.9-2.8,1.6-3.1,1.6
			C359.9,19.3,356.3,19.2,357.6,20.4z"/>
		<path class="st0" d="M341.2,112c-0.1,1.4,1.1,1,2.5,1c1.4,0,4-0.3,4.4,0.4c0.5,0.7,2.6,1.8,3.2,2.4c0.6,0.6,2.5,0.7,2.6,0.1
			c0.1-0.6-1.3-2.1-2.2-2c-0.8,0.1-2.6-1-3.6-2c-1-1-2.8-1-3.5-1C344.1,111,341.2,112,341.2,112z"/>
		<path class="st0" d="M350,108.1c-1.1,0.1-0.8,1.7,0.5,1.4C351.8,109.2,351,107.9,350,108.1z"/>
		<path class="st0" d="M350.6,119.8c-1.1,0.2-0.8,2.8,0.5,2.3C352.4,121.6,351.6,119.6,350.6,119.8z"/>
		<path class="st0" d="M366.4,118.2c-1.1,0.2-0.8,2.8,0.5,2.3C368.2,120.1,367.5,118,366.4,118.2z"/>
		<path class="st0" d="M355.5,118.8c0,0,1.3,0.3,2.2,0.3c0.8,0,1.3,0.6,2,1c0.7,0.4,2-0.6,2.5-0.6c0.5,0,1.1,1.7,1.2-0.1
			c0.1-1.8-1.4-2.7-2.4-3c-1-0.3-2,0-2.8,0.1C357.5,116.7,355.5,118.8,355.5,118.8z"/>
		<path class="st0" d="M455.9,91.1c0.5-0.3,2.4-1,3.5-1.6c1.1-0.6,4.6-2,5-2c0.5,0,6.5,0.1,7.3-0.3c0.8-0.4,4.1-1,5,2.1
			c1,3.1-1.1,1.9-2,2.4c-1,0.6,0.4,1.8,0.8,1.8c0.5,0,2.2,1.8,3,1.8c0.8,0,2.9,1,2.9,1s2,1.8,3.1,1.8c1.1,0,2.9,2.2,4.1,0.8
			c1.2-1.4,1.8-4.3,3-4c1.2,0.3,2.5,1.4,4.1,1.4c1.6,0,4.4-0.3,4.9,0.4c0.5,0.7-3.2,3.1-3,3.7c0.2,0.6,0.7,0.4,1.9-1.3
			c1.2-1.7,3-1.7,4.4-2.1c1.4-0.4,2.2,2.3,2.4,3.1c0.2,0.8,1.3,2.4,2.2,4.2c0.8,1.8,1.7,4.4,2.6,6.4c1,2-0.1,6,0.8,7.2
			c1,1.3,3.5,2.4,4.1,4.1c0.6,1.7,2,3.4,2.5,3.5c0.5,0.1,2.5,3.4,2.6,4.2c0.1,0.8-0.7,2.7,1.2,2.8c1.9,0.1,3.6-1,4.2-1.3
			c0.6-0.3,5.3-2.4,5.9-1.6c0.6,0.8-0.8,4.5-1,5.5c-0.1,1-3.6,5.8-3.7,7.1c-0.1,1.3-2.2,3.5-3.5,3.8c-1.3,0.3-4.1,4.2-5,5.5
			c-1,1.3-2.5,4.1-3.2,4.4c-0.7,0.3-1.3,4-0.9,4.6c0.4,0.6,0.4,3.2,1.5,4.3c1.1,1.1,1.4,2,1,3c-0.5,1,0.2,3.3,0,5.1
			c-0.2,1.8-2.3,3.7-2.8,4.2c-0.5,0.6-2.8,2.1-3.7,3.5c-1,1.4-1.8,2.7-1.6,3.4c0.2,0.7,1.2,4.2,1.1,5.1c-0.1,0.9-3.3,1.3-4.3,1.9
			c-1,0.6,0.4,2.4,0.7,3.5c0.2,1.1-1.7,3-2.5,4c-0.8,1-3.1,4.4-4.7,5.7c-1.6,1.3-3.8,1-5.4,0.9c-1.6-0.1-4.1,1.2-4.7,2
			c-0.6,0.7-1.4,0.6-2.6-0.1c-1.2-0.7-1.3-1.7-1.4-3.3c-0.1-1.6-0.5-2.5-0.5-2.5s-0.4-2.4-1.4-3.5c-1.1-1.1-1.4-2.4-2-3.3
			c-0.6-0.8,1.1-3.3,1-4.8c-0.1-1.6-2.2-3.4-2.8-4.4c-0.6-1-1.8-3.7-2.3-4.7c-0.5-1-1.1-3-1-5.8c0.1-2.8,1.3-4.5,2.3-5.3
			c1-0.8,0.6-1.9-0.3-3.6c-0.8-1.7,0.1-4.5-0.6-5.5c-0.7-1-1.8-6.5-3.1-7.4c-1.3-0.9-2.7-0.8-2-2.8c0.7-2,0-4,1.2-5.2
			c1.2-1.3,0.6-2.1-0.7-3c-1.3-0.8-0.8-1.3-1.9-0.3c-1.1,1-2.5,1.6-3.4,0.6c-0.8-1-0.6-2.5-2.2-3.7c-1.6-1.1-4.1-0.7-4.7-0.5
			c-0.6,0.3-1.8,2.7-3.5,3c-1.7,0.3-2.9-0.1-4.6-0.1c-1.7,0-3.1,0.1-3.4,1.1c-0.2,1-0.6,1.6-1.7,0.6c-1.1-1-3.2-3.3-3.2-3.3
			s-2-3.9-2.6-5.6c-0.6-1.7-2.7-1.8-5-3c-2.3-1.3-1-2.7-1.2-4.1c-0.2-1.4-1.4-2-0.8-2.1c0.6-0.1,0.5-1.1,1.8-3.1
			c1.3-2,0.5-4.1,0.2-5.2c-0.2-1.1-1.4-2.8-0.2-4.7c1.2-1.8,1.9-6.2,2.9-7.4c1-1.1,3.8-2.3,5.1-3c1.3-0.7,0.5-2.5,1.2-4.7
			c0.7-2.1,1.8-3.1,2.2-3.1c0.4,0,1.7-1.5,3.1-2.4C452.9,90.5,455.4,91.3,455.9,91.1z M508.2,149.3c-0.3-0.6-2.4-0.4-2.8,0.3
			c-0.4,0.7-0.7,4,0.4,4.2C506.9,154.1,508.8,150.4,508.2,149.3z"/>
		<path class="st0" d="M530.1,170.2c-1.5-0.5-1.7,1.8-2.9,3.4c-1.2,1.6-2.5,2.8-3,2.7c-0.5-0.1-3.1,1-2.3,3.1
			c0.8,2.1,0.7,4.2-0.1,5.2c-0.8,1,0.7,3.8,0.5,5.4c-0.2,1.6,0.4,2.5,2,2.5c1.7,0,2.3-0.7,3-2.5c0.7-1.8,0.8-3.7,1.6-5.2
			c0.7-1.6,1.3-4.8,1.7-5.7c0.4-0.9,1.1-3.5,1-5.1C531.4,172.5,530.9,170.5,530.1,170.2z"/>
		<path class="st0" d="M573.5,133.8c-0.8,0.4-1.6,7.2-0.1,7.8c1.4,0.6,2.4-4.2,1.9-5C574.9,135.9,574.6,133.3,573.5,133.8z"/>
		<path class="st0" d="M472.7,81c-1.1,0-1.7,2.1-1,2.8c0.7,0.7,1.4,0.6,2-0.4C474.3,82.4,473.3,81,472.7,81z"/>
		<path class="st0" d="M463.6,83.3c-0.3,0.5,1,0.7,1.2,0.1C465,82.9,464.4,81.7,463.6,83.3z"/>
		<path class="st0" d="M477.8,85.7c-0.4,0.3,0.7,1.3,1.3,1.6c0.6,0.3,1.1,1.1,1.6,1.3c0.5,0.1,2,0,1.6-1.4c-0.5-1.4-1.6-1.4-1.9-1.4
			C480,85.7,478.4,85.3,477.8,85.7z"/>
		<path class="st0" d="M449.2,57.1c-1.1,0.2-1.2,1.6-1.9,1.6c-0.7,0-1.6,0.3-1.3,1.3c0.2,1,0.7,1.7,0,2.1c-0.7,0.4,0.1,2.1,1.1,2.3
			c1,0.1,2-0.7,2.9-1.1c0.8-0.4,2-1.3,2-2.5c0-1.3-0.2-2.4-0.7-3C450.7,57.1,449.9,57,449.2,57.1z"/>
		<path class="st0" d="M450.5,52.8c-1,0.4-0.6,1.8-0.1,2.5c0.5,0.7,1.3,2.3,2.5,2.8c1.2,0.6,3.7,1.1,2.8,1.7c-1,0.6-3.7,3.4-4,4.2
			c-0.2,0.8,3.1,0.5,3.1,0.5s-0.7,1-0.1,1.3c0.6,0.3,1-1,1.9-1c1,0,2.9,0.7,3.8,0.7c1,0,2.5-1.6,2.4-2.6c-0.1-1-1.3-2.5-2.4-3.1
			c-1.1-0.6-2.3-3.1-3-3.7c-0.7-0.6,2.7-2.4,1.8-3.4c-0.8-1-3.4-0.4-4.3-1.1c-1-0.7-1.8,0.1-2.4,1C451.9,53.6,451.2,52.6,450.5,52.8
			z"/>
		<path class="st0" d="M458.4,72.5c-0.1-1.3-2.5-2.4-4.1-2.7c-1.6-0.3-1.3-1.1,0.4-1.3c1.7-0.1,1.6-0.8,3-1.1c1.4-0.3,2.9-0.7,4-0.8
			c1.1-0.1,1.1-1.3,1.1-2.1c0-0.8,3-1.1,3-1.1s1.7-1.8,2.6-2.7c1-0.9,2.6-0.7,4-0.3c1.3,0.4-0.1-1-0.6-1.7c-0.5-0.7-0.1-2.3,0.2-3.1
			c0.4-0.9,2.5-1.3,3.1-1c0.6,0.3,0,1.6,0.1,2.7c0.1,1.1,1.1,1.8,1.1,1.8l1-0.1c0,0,0,0,1.6,0c1.6,0,1.6,0,2.8-0.4
			c1.2-0.4,2.1,0.1,2.6-0.2c0.5-0.3,1.8-0.3,3.6,0.4c1.8,0.7,0.8-1.3,1.2-2.4c0.4-1.1,1.1-3.1,2.3-3c1.2,0.1,2.2,1,3.1,0.3
			c1-0.7-1.8-1.7-1.8-2.1s2.3-0.4,4.3-0.6c2-0.1,3.2,0,4.2-0.3c1-0.3-0.7-2.3-1.1-2.3c-0.4,0-2.8,0.3-4,0.1
			c-1.2-0.1-2.5,0.8-3.6,1.1c-1.1,0.3-1.3-1.7-1.9-2.5c-0.6-0.8-0.8-2.4,0.7-3.3c1.6-0.8,4.3-2.7,4.8-3.5c0.5-0.8-1.9-0.7-4.2-0.6
			c-2.3,0.1,0.4,0.9-1.8,3.4c-2.2,2.5-3.2,0.8-4.9,2.5c-1.7,1.7-0.5,1.8,1.1,2.4c1.6,0.6,0.2,2.3-0.1,2.7c-0.4,0.4-2.2,2-1.9,3.1
			c0.2,1.1-1.2,1.8-1.2,1.8s-4.4,1.1-5.3,1.3c-0.8,0.1-1.1-0.7-0.8-1.6c0.2-0.9-1-2.8-1.1-4.1c-0.1-1.3-1.9,0.6-2,1.4
			c-0.1,0.8-2.4,1-3.7,0.4c-1.3-0.6-2-2.7-1.8-3.1c0.2-0.4-0.7-2.6-0.7-3.1c0-0.6,2.8-4.7,5.1-5.3c2.3-0.6,5-2,6.5-3.4
			c1.6-1.4,2.3-3.1,2.8-3.5c0.5-0.4,8.8-5.1,11.8-5.7c3-0.6,9.6,2.9,10.7,3.1c1.1,0.3,1.7,0.7,4.3,1.8c2.6,1.1,5.1-0.1,6.8,0.2
			c1.7,0.3,2.5,2.1,3.6,2.7c1.1,0.6,0,1-2.6,2c-2.6,1-4.4,0.7-5.9,0.1c-1.4-0.6-2.3-0.6-1.2,0.3c1.1,0.8,0.7,1.3,0.8,2.5
			c0.1,1.3,1.8,0.1,2.2-0.1c0.4-0.3,0.4-0.8,1.7,0.1c1.3,1,1.8,0.4,2.4,0.3c0.6-0.1,0.1-1.7,0.5-2.3c0.4-0.6,1.8-0.6,2.2-0.8
			c0.4-0.3,1.2-0.7,1.9-0.8c0.7-0.1,0.6,1.3,1.3,1.7c0.7,0.4,0.4-1.8,0.1-2.4c-0.2-0.6-0.5-2.1-0.1-2.6c0.4-0.4,2.9-0.7,3.5-0.1
			c0.6,0.6-1,2.3-0.6,3.3c0.4,1,1.2-0.6,1.8-1.4c0.6-0.8,1.9,0,4.1-0.4c2.2-0.4,1.7-1.8,4-1c2.3,0.8,1.7,0.8,2.4,0
			c0.7-0.8,2,0.1,3.3-0.4c1.3-0.6,1.3,0,2.3,0.6c1,0.6,2.2-1.1,2.6-1.7c0.5-0.6,2.4-0.6,3.4-0.4c1,0.1,2.2,0.8,3.1,0.8
			c1,0,2.5,0.8,2.5,0.8s2,0.9,2.5,0.3c0.5-0.6-0.1-1.3-1.9-2.3c-1.8-1-1.1-2.7,0-2.8c1.1-0.1,1-0.8,1.8-1.4c0.8-0.6,1.9-2.7,2.9-2.3
			c1,0.4,1.8,1.3,3,2c1.2,0.7,0.1,1.7-0.1,2.4c-0.2,0.7,0.2,3.4,0.6,3.8c0.4,0.4-0.4,2-1.3,2.7c-1,0.7-2.3,2.3-1.9,2.5
			c0.4,0.3,3.2-1.3,3.2-1.3s1.8-2.5,2.6-3.3c0.8-0.7,1.7-0.7,1.9,0.1c0.2,0.8,1.6,1.1,2.8,0.6c1.2-0.6,0-1-0.1-2.3
			c-0.1-1.3-2-0.6-3.1-0.3c-1.1,0.3-1.9,1.6-2.3,1.6c-0.4,0-0.4-0.9-0.1-2.1c0.2-1.3-0.5-2-0.5-2.7c0-0.7,0.4-0.7,1.2-2.1
			c0.8-1.4,0.8,1,1,2.3c0.1,1.3,1,0.7,1.7,0.6c0.7-0.1,0.4-1.8,1-2.7c0.6-0.9,1.9-1,3.1,0.3c1.2,1.3,1.1,0.8,2.5,1.4
			c1.4,0.6,1.6,0.7,1.7,2c0.1,1.3,1.1,1.4,1.7,1c0.6-0.4,0.1-2.1-0.2-2.7c-0.4-0.6-3.2-1.6-4.2-2.6c-1-1,0.5-1,1.6-1
			c1.1,0,3.1,0.1,3.1,0.1s2.3-0.6,3.5-1.6c1.2-1,2-1,3.2-1.6c1.2-0.6,3.1-0.6,4.3-0.3c1.2,0.3,2-0.6,3.2-1.1
			c1.2-0.6,2.8-4.3,2.9-0.7c0,0.5,3.4,1.1,3.8,1c0.5-0.1,1.7-0.3,3.5-1.4c3.5-2.1,0.5-3.1,1.8-1.1c0.5,0.7,1.9-0.6,4.4,0.7
			c2.5,1.3,0,0,0.7,0.9c0.7,0.8,1.1-0.1,2.8-0.4c1.7-0.3,2.8,0,3.8,0.1c1.1,0.1,3.5,0.1,4.6,1c1.1,0.8-0.7,2.7-1.3,3.3
			c-0.6,0.6,1,1,1.4,0.8c0.5-0.1,4.4,0,6.2,0.3c1.8,0.3,2.5,1.3,3.4,1.3c0.8,0,2.2-0.4,2.6-1c0.5-0.6,3.5-0.8,4.4-1
			c1-0.1,3.6,0,4,0.3c0.4,0.3,0.7,1.7,0.7,2.8c0,1.1,1.1,2.1,1.9,2.3c0.8,0.1,2.4-1.7,3-2c0.6-0.3,1.3,1.3,1.7,0.9
			c0.4-0.4,3.4,0.1,4.6-0.6c1.2-0.7,1.9,0,2.5-0.3c0.6-0.3,1.6-1.8,1.6-2.4c0-0.6,0.5-1,0-1.8c-0.5-0.8-2.2-0.3-4-0.8
			c-1.8-0.6,0.1-3.5,0.6-2c0.3,0.9,1.9,0,3.1,0.3c1.2,0.3,0.7-0.4,1.3-0.4c0.6,0,2.8,0.7,4,0.7c1.2,0,2.2,1.6,2.2,1.6
			s-3.4,1.1-4.1,1.1c-0.7,0-0.2,1.1,0.4,1.1c0.6,0,1.4,0.4,2.3,1.1c0.8,0.7,4.6,0,5,0c0.5,0,1.9,0.7,3.4,1.7c1.4,1,2.4,1.4,2.4,1.4
			s2,0,4.1-0.3c2-0.3,4.7-0.3,5.1,0.1c0.5,0.4,1.8,0.8,2.8,1.8c1,1,1.7,0.6,3,0.4c1.3-0.1,2.6-0.4,3.8-0.4c1.2,0,5.2-0.1,5.9,1.1
			c0.7,1.3,1.6,1,1.6,1s1.1-2.3,1.6-2.7c0.5-0.4,2,0.3,3,0.8c1,0.6,5.6,0,6.8,0.3c1.2,0.3,2.9,1.7,1.9,2.8c-1,1.1,0.7,3.1,0.4,4.2
			c-0.4,1.1-1.3,1.3-2.3,1.6c-1,0.3,1,1.7,1.8,2.7c0.8,1-0.5,1.3-1.3,0.8c-0.8-0.4-3,0.1-5.8,1c-2.8,0.8-3.8,2.5-6.7,2.7
			c-2.9,0.1-1.7-0.1-5.3-0.1c-3.6,0-3.5,1.1-4.2,2.5c-0.7,1.4,0.4,1.1,0,2.3c-0.4,1.1-1,2.4-1,3.4c0,1-2.2,1.1-2.9,2
			c-0.7,0.9-1.9,3-4,4.5c-2,1.6-3.5,4-3.5,4s0.4-2.4,1.3-4.1c1-1.7-1.1-4.1-1.2-5.9c-0.1-1.8,0.6-2.4,1.8-4.1
			c1.2-1.7,4.1-2.3,5.3-3.1c1.2-0.9,6.1-4.8,6.1-4.8s-1,0.7-2.2,1.3c-1.2,0.6-2.6,1.7-3.6,1.7c-1,0-0.6-1.1-0.7-2.3
			c-0.1-1.1-2.4-0.3-3.2,0.8c-0.8,1.1-2.4,1.8-4.1,3.3c-1.7,1.4-1.2,1.3-2.3,1.4c-1.1,0.1-2.9-0.7-3.7-1.4c-0.8-0.7-1.7,0.6-4.3,0.7
			c-2.6,0.1-5.6-0.3-6.8-0.1c-1.2,0.1-4.2,4.2-6,5c-1.8,0.7-4.1,2-3.5,3c0.6,1,1.7-0.9,2.2-0.9c0.5,0-0.4,2,0.7,2
			c1.1,0,1.7-0.7,2.8-0.9c1.1-0.1,1.9,1,2.2,2.5c0.2,1.6-0.5,2.8-1,4.8c-0.5,2-1.2,4-3.1,5.7c-1.9,1.7-5,4.8-5.6,5.7
			c-0.6,0.8-2.8,0.1-3.1-0.4c-0.4-0.6-1.4,1.3-2.3,1.7c-0.8,0.4-1.7,1.3-1.7,2.4c0,1.1-2.4,1.1-2.4,1.8c0,0.7,1.4,2.7,2,3.7
			c0.6,1-0.1,4.1-1.2,4.8c-1.1,0.7-1.6,1.6-3,0.6c-1.4-1-0.2-1.6,0.4-3.1c0.6-1.6-0.6-2.4-0.8-2.8c-0.2-0.4-1.2,0.8-1.7,1
			c-0.5,0.1-0.5-1.3-0.1-2.1c0.4-0.8-0.2-2.7-0.6-2.8c-0.4-0.1-2.6,2.1-3.6,2c-1-0.1-0.1-2.7,0.2-3.4c0.4-0.7-0.7-0.1-1.4,0.6
			c-0.7,0.7-2.3,2.3-2.9,2.1c-0.6-0.1-1.8,1.1-0.8,2c1,0.9,1.3,1.6,1.9,1.7c0.6,0.1,2.2-0.3,2.8-0.4c0.6-0.1,1.8,1,0.6,2.3
			c-1.2,1.3-3.7,1.4-3.2,2.3c0.5,0.8,1.7,2.1,2.6,4.1c1,2,0.6,4.1,0.8,5.7c0.2,1.6-3.5,4.8-4.6,5.8c-1.1,1-2.2,3.4-4,4.5
			c-1.8,1.1-5.6,2.1-6.2,1.7c-0.6-0.4-2.3,0.7-2.2,2.3c0.1,1.6,1,1.4,1,1.8c0,0.4-1.2,2.1-1.7,2.8c-0.5,0.7-2.2,0-1.9-2.1
			c0.2-2.1,1.4-3,1.3-4c-0.1-1-1.2-1.6-1.9-0.7c-0.7,0.8-3,3.3-3,3.3s0.8,2.6,1.9,3.5c1.1,1,1.8,2.4,3.2,4.5c1.4,2.1,0.4,4,0,5.5
			c-0.4,1.6-1.6,1.6-2.5,1.8c-1,0.3-1.2,0.7-1.6,1.6c-0.4,0.9-2.1,4.9-2.3,4.2c-0.2-0.7-1.7-5.5-1.7-5.5s-1.1-2.5-2.6-3.8
			c-1.6-1.3-2.2-1.8-2.2-0.6c0,1.3-1,3.7-1,4.5c0,0.8-2.2-2.5-2.2-4c0-1.4-0.4-3.8-0.2-6.1c0.1-2.3-2.5-0.1-2.5-0.1s-2,5.1-2.6,5.1
			c-0.6,0,0-4.7,0.1-6.3c0.1-1.7-0.6-3.3-1-3.8c-0.4-0.6-2.4-2.8-2.8-4.4c-0.4-1.6-1.1-1-1.8-0.1c-0.7,0.8-0.5,0.8-3.4,0.8
			c-2.9,0-2.8,2.1-4.2,3.4c-1.4,1.3-2.6,3.7-4.3,4.5c-1.7,0.8-2.4,1.7-2.4,2.7c0,1,0.7,4.3,0.3,5.7c-0.4,1.4-1.3,2.7-2.1,4.1
			c-0.8,1.4-1.6,3.7-2.3,3.7s-1-2-1-3.3c0-1.3-2-4.2-2.5-5.2c-0.5-1-2.3-5.4-2.3-5.4s-1.4-4.7-1.3-5.9c0.1-1.3,0.1-4.8,0.1-4.8
			s-1.9,2.3-2.8,2.1c-0.8-0.1-1.7-1.7-1.6-3.5c0.1-1.8-1.4-1.7-2.3-2c-0.8-0.3-1.9-2.8-2.5-2.8c-0.6,0-1,0-1.4,0.8
			c-0.5,0.8-3,0.7-3.6,0.7c-0.6,0-4.2-0.1-5.3-0.6c-1.1-0.4-2.3-3-2.9-3.3c-0.6-0.3-2.4,1.6-3.1,1.3c-0.7-0.3-2.2-1.7-3.7-2.5
			c-1.6-0.8-2-2.8-2.6-4.1c-0.6-1.3-2.6,0.7-2.4,2.1c0.2,1.4,2.9,3.3,2.9,4.2c0,1,0.5,1.3,1.8,2.5c1.3,1.3,0.2,2,1.1,2.3
			c0.8,0.3,2-1.1,3.2-1.8c1.2-0.7,1.1-1.7,1.7-1.7c0.6,0,0.5,1.8,1.4,2c1,0.1,3.5,1.8,4.1,3c0.6,1.1-0.6,1.8-1.1,2.8
			c-0.5,1-1.9,3.8-3.1,5c-1.2,1.1-2.5,2.7-4.3,3.1c-1.8,0.4-2,1.6-3.5,1.7c-1.4,0.1-5.4,2.4-6,2.8c-0.6,0.4-3.8,1.6-4.8,1.1
			c-1-0.4-1.3-3.3-1.7-5.4c-0.4-2.1-0.8-3.3-1.2-4.1c-0.4-0.9-2.5-3.1-3-3.5c-0.5-0.4-1.7-3.8-1.8-5.2c-0.1-1.4-1.4-0.9-1.7-2.4
			c-0.2-1.6-1.6-3.7-1.8-4.7c-0.2-1-2.6,0.1-3.6,0.3c-1,0.1-2.8-0.8-2.5-3.1c0.2-2.3,1.2-2.3,2.4-2.3c1.2,0,0.7-0.7,1.9-2.1
			c1.2-1.4,1.6-4.2,1.7-6.1c0.1-1.8-0.8-1-1.8-0.7c-1,0.3-2.4,0.7-2.9,0.6c-0.5-0.1-2.4-0.8-2.8-0.4c-0.4,0.4-2.4,0.1-2.9-0.6
			c-0.5-0.7-2.9-1.6-3.1-2.1c-0.2-0.6,0-4-0.5-4.8c-0.5-0.8-1.6,0.1-2.2,0.7c-0.6,0.6-2.3,1-1.8,1.4c0.5,0.4,2,1.3,1.9,2.4
			c-0.1,1.1-1.2,1.4-1.8,2c-0.6,0.6-2.8,2.8-3.1,2.1c-0.4-0.7-0.6-5.2-0.9-5.8c-0.4-0.6-1.4-2-1.8-3.3c-0.4-1.3-1.7-1.7-2.5-2.7
			c-0.8-1-3.2-2.5-4.2-3.7c-1-1.1-2.6-2-2.8-0.6c-0.1,1.4,1.7,1.7,2.4,3.1c0.7,1.4,2.3,2.3,3.1,2.7c0.8,0.4,3.1,2.3,3.1,2.3
			s-1,0.4-1.8,0.3c-0.8-0.1,0.5,3.1,0.4,4c-0.1,1-1.6-0.4-1.8-1.5c-0.2-1.1-1-2.4-1.4-2.8c-0.5-0.4-3.6-1.6-4.1-1.8
			c-0.5-0.3-2.5-1.8-2.8-3.1c-0.2-1.3-2-1.4-2.5-1.1c-0.5,0.3-2.3,1.8-3.1,1.8c-0.8,0-2.2-0.7-3.1-0.8c-1-0.1-1.1,1.8-1.4,3
			c-0.4,1.1-1.9,0.3-2.8,1.3c-0.8,1-2.3,2-1.9,2.8c0.4,0.8,1,0.8-0.1,1.6c-1.1,0.7-1.7,2.1-2.8,2.3c-1.1,0.1-2.5,0.7-3.1,0.3
			c-0.6-0.4-1.1,1.4-1.4,1.8c-0.4,0.4-1-1.3-1.6-2c-0.6-0.7-2.2-0.1-2.6-0.3c-0.5-0.1-1-1.4-1.6-2c-0.6-0.6-0.5-1.8,0-2.3
			c0.5-0.4,1-1.1,0.6-2.4c-0.4-1.3-0.6-4.1,0.6-4.7c1.2-0.6,4.1,0,5.5,0c1.4,0,3.9,0.6,4.3-0.3C458.3,75.2,458.5,73.8,458.4,72.5z
			 M503.6,47.6c-0.4,1.3,2.8,2.4,3.4,1.4C507.5,48,504.2,45.6,503.6,47.6z M499.5,81.9c0.2,0.6,1.4-0.9,2.4-0.9c1,0,3.1,0.4,3.7-0.6
			c0.6-1,2.5-1.1,4.1-0.9c1.6,0.3,2.9,1.6,4,1.7c1.1,0.1,4-0.1,4.9-0.4c1-0.3,0.7-2.3-0.8-3.3c-1.6-1-2.9-2.5-4.3-3.1
			c-1.4-0.6-1.9-1.1-1.1-1.4c0.8-0.3,1.9-1.4,0.7-1.4c-1.2,0-2.3,0.4-2.4,1.1c-0.1,0.7-0.8,1.6-1.3,1.8c-0.5,0.3-1.7,1.4-2,0.6
			c-0.4-0.9-1.7-3.4-2.3-3.5c-0.6-0.1-1.6,0-2.3,1.4c-0.7,1.4-1.6,2.8-2.3,3.4c-0.7,0.6-1.7,2.3-1,2.5
			C500.2,79.3,499.5,81.9,499.5,81.9z M526.9,72c-1.5,1.1-1.9,2.7-1.3,3.7c0.6,1,2.3,4.1,3.1,4.4c0.8,0.3,3.8,0.8,2.6,2.1
			c-1.2,1.3-1.4,1.7-2.5,1.6c-1.1-0.1-0.6,3.4,0.2,3.7c0.8,0.3,3.4,1.3,4.2,1.4c0.8,0.1,3.6-0.3,3.5-1.1c-0.1-0.9-0.6-4.2-1.6-5.1
			c-1-0.9,1.3-1.7,0.7-2.4c-0.6-0.7-1.4-0.4-1.9-1.3c-0.5-0.8-0.7-1.7-1.4-2.3c-0.7-0.6-1.3,0.6-1.2-1c0.1-1.6,1.8-2.5,2.5-1.7
			c0.7,0.8,2.9,0.4,3.4,0c0.5-0.4-1-1.7-1.3-2.6c-0.4-0.8-2.8-1.6-3.1-1.3c-0.4,0.3-1.3,1.1-2.3,1.8C529.6,72.7,527.7,71.4,526.9,72
			z"/>
		<path class="st0" d="M540.7,31.9c-0.9,1-2.8,0.7-4.1-0.1c-1.3-0.8-2.9-1-3.6-1.3c-0.7-0.3,0.1-2,1-2.4c0.8-0.4,3.1-1.7,4.8-2.6
			c1.7-0.8,2.2-2.5,3.4-2.5c1.2,0,7-1.4,7.7-1.1c0.7,0.3,4.2,0.6,4.9-0.6c0.7-1.1,3.2-0.4,2.6,0.6c-0.6,1-2.8,3.3-4.2,2.8
			c-1.4-0.4-5.5-0.3-7.3,0c-1.8,0.3-3.5,1.6-5,2.5c-1.6,1-1.2,2.1-0.6,2.3C540.8,29.6,541.4,31,540.7,31.9z"/>
		<path class="st0" d="M662,60.1c-0.7,0.2-2.8-0.3-2,1.7c0.7,2,0.8,3.4,0.7,5c-0.1,1.6,0,4.8,0.2,5.2c0.2,0.4,1.2,1.4,1.8,1.1
			c0.6-0.3-0.2-3.1-0.2-3.7c0-0.6,0.8-1.4,1.3-1.6c0.5-0.1,0-2.5-0.6-3.5c-0.6-1-1.4-1.6-1-1.7c0.5-0.1,1.1-1.3,0.7-1.6
			C662.6,60.8,662.8,59.8,662,60.1z"/>
		<path class="st0" d="M660.8,74.5c-0.9,0.3-1.2,1.7-1.2,2.1c0,0.4-3.4,1.3-2.3,2.4c1.1,1.1,2.2,0.3,3.8,0.1
			c1.7-0.1,3.2-0.7,3.2-0.7s2.5,0.1,2.2-1.3c-0.4-1.4-3-1.6-3.5-1.4C662.6,75.9,661.7,74.2,660.8,74.5z"/>
		<path class="st0" d="M658,80c-0.9,0.6-0.4,3.1-1.1,4.8c-0.7,1.7-1.3,3.3-1.8,3.3c-0.5,0-3,1.1-3.7,2c-0.7,0.8-4.2-0.7-4.7,0
			c-0.5,0.7-1.4,1.6-2,2.1c-0.6,0.6-2.3,0.1-1.9,1.8c0.4,1.7,1.2,3.3,1.9,3.3c0.7,0,1.7-0.6,1.7-2.1c0-1.6,1.7,0,2.5-0.1
			c0.8-0.1,1.3-1.1,1.7-2.3c0.4-1.1-0.5,0.6,1,1c1.4,0.4,1.9-0.7,1.9-1.1c0-0.4,2.6-1.1,3.1-1.6c0.5-0.4,2.4-1.1,2.5-1.7
			c0.1-0.6,0-3.8,0.6-4.1c0.6-0.3,1.4-0.3,0.5-2.3C659.2,81,659.2,79.2,658,80z"/>
		<path class="st0" d="M631.7,107.9c-1.8,0.3-2.9,4.8-1.4,4.7C631.7,112.4,633.2,107.6,631.7,107.9z"/>
		<path class="st0" d="M705.6,208.1c-0.5,0.3,0,1.8,0.5,2.4c0.5,0.6,0.7,2.6,0.6,3.1c-0.1,0.6-2.2,1.3-1.2,2c1,0.7,2.8,0,2.5,0.9
			c-0.2,0.8-1.2,2-0.1,2.3c1.1,0.3,1.4-1,1.9-2c0.5-1,0.8-1.8,1.7-2.4c0.8-0.6,0-1.8-0.5-1.8c-0.5,0-0.7,0.7-1.8,0
			c-1.1-0.7-0.8-0.4-1.6-1.8C706.9,209.3,706.8,207.4,705.6,208.1z"/>
		<path class="st0" d="M704.6,217.2c-0.2,0.7-1.2,0.8-1.9,1.6c-0.7,0.7,0,1-2,2.4c-2,1.4-4.6,3-5,4.2c-0.5,1.3,0.5,2,2.4,2.1
			c1.9,0.1,1.4,0.6,2.8-1.1c1.3-1.7,2.5-2.7,4.1-4.1c1.6-1.4,1.6-3.5,1.6-3.5S704.8,216.8,704.6,217.2z"/>
		<path class="st0" d="M664.6,218.3c-1.3,1.6,1.3,1.6,1,3.1c-0.4,1.6,1.8,1,2.4,0.7c0.6-0.3,2-3.5,1.8-4.4c-0.2-0.8-2.6,1.4-3.2,1.3
			C665.9,218.9,664.6,218.3,664.6,218.3z"/>
		<path class="st0" d="M655.9,207.3c0-1.4-0.7,1.6-1.2,0.3c-0.5-1.3,0.5-3.4-0.7-2.5c-1.2,0.9-1.8,1.6-1.9,2.3
			c-0.1,0.7-2.3,1-2.2,0.3c0.1-0.7,1-2.4,0.1-3.1c-0.8-0.7-2.3-1-3.4-1.4c-1.1-0.4,0.1-1.8-2.8-1.1c-2.9,0.7-3.9,1.6-3.9,1.6
			s-2.6-1-3.5,0.1c-0.8,1.1-1.3,4.7-1.3,4.7s-4.1-1.3-4.8-1.2c-0.7,0.1-1.9,1.3-3,1.7c-1.1,0.4-2.9,0.8-3.6,0.1
			c-0.7-0.7-1.9-2-1.6-2.8c0.4-0.9,3-2,2-3.4c-1-1.4-1.6-1.7-1.7-2.5c-0.1-0.9,0.4-1.3-1.1-3c-1.4-1.7-1.1-3.7-0.5-4
			c0.6-0.3-2-2-2.5-2.7c-0.5-0.7,1.2-3.3,2.1-4c1-0.7,3.8-3.4,4.7-3.4c0.8,0,2.2,0.4,3-0.3c0.8-0.7,3.4-0.4,3.4-1
			c0-0.6-0.7-5.1-0.1-5.8c0.6-0.7,4.1,0.9,4.4,0.3c0.4-0.6,1-3,1.7-3.4c0.7-0.4,1.3-1.4,2.4,0c1.1,1.4,2.2,2,2.6,0.6
			c0.5-1.4,0.1-1,1.2-2.3c1.1-1.3-0.1-3.4,1-2.1c1.1,1.3,1.8,2.3,1.8,2.3s-0.1-2.8,0.6-2.8c0.7,0,1.4,1.4,1.8,1.4
			c0.4,0,3.6-0.9,4.2,0.1c0.6,1-1.7,3.7-0.8,4.7c0.8,1,2.5,1.6,3.7,2.4c1.2,0.8,2.6,2.8,3.2,1.1c0.6-1.7,1.8-4.2,1-5.5
			c-0.8-1.3,0.2-5.4,0.6-5.7c0.4-0.3,1,3.3,2.2,4.8c1.2,1.6,2.4,2.7,3,4.4c0.6,1.7,0.7,4.7,1.8,5.7c1.1,1,5.2,0.9,5.1,2.2
			c-0.1,1.3,0.4,3.7,1.7,6.2c1.3,2.4,3.9,8,3.9,10.3c0,2.3-3.9,4.8-4.9,6.5c-1.1,1.7-1.4,4-1.9,4.8c-0.5,0.8-0.2,0.7-2,1.3
			c-1.8,0.6-3.1,2.3-3.6,1.7c-0.5-0.6-2.2-1.6-2.6-0.8c-0.5,0.7-1.1,2.3-1.9,0.6c-0.8-1.7-2.8-1.4-3.1-1.7c-0.4-0.3-0.4-1.1-0.4-2.6
			c0-1.4-1.6-1.6-1.7-2C656.2,208.1,655.9,207.7,655.9,207.3z"/>
		<path class="st0" d="M711.1,179.6c1.6,0.7,4.3-2.6,3.2-3C713.3,176.1,711.1,179.6,711.1,179.6z"/>
		<path class="st0" d="M695.9,186.6c-0.2,1.4-1.7,0.7-2.4-0.6c-0.7-1.3-2.2-2.3,0-1.7C695.6,184.9,696,185.9,695.9,186.6z"/>
		<path class="st0" d="M594.9,140.5c-1.5,0.4,2.2,3.4,2.5,3.8c0.4,0.4,3.6,3.7,3.6,5.2c0,1.6,1,6.4,1.6,7c0.6,0.6,4.7,1.5,5.2,2.7
			c0.5,1.1,1.6,1.4,1.6-0.1c0-1.6,0.2-3.4,0.8-4.2c0.6-0.9,0.4-2.1-0.6-2c-1,0.1-1.8-1.8-3.4-3.1c-1.6-1.3-2.8-2.1-4.2-4
			c-1.4-1.8-3.2-3-4.2-4C596.9,140.8,595.5,140.3,594.9,140.5z"/>
		<path class="st0" d="M599.5,133c-1,0.1-1,2.3-0.5,3c0.5,0.7,1.4,0.3,2,2.8c0.6,2.5,1.8,5.1,2.3,6.1c0.5,1,2.5,2.4,3.2,3.1
			c0.7,0.7,1.8-0.3,1.3-1.1c-0.5-0.8-1.4-2.1-1.6-3.1c-0.1-1-0.7-2.5-1.7-4.2c-1-1.7-1.8-2.1-2.4-3.3
			C601.7,135.1,599.5,133,599.5,133z"/>
		<path class="st0" d="M609.6,159.7c-0.9,1.3,0.2,2.3,0.6,2.5c0.4,0.3,1.7,0.6,2.9,0.4c1.2-0.1,2.9-0.6,1.6-1.4
			c-1.3-0.9-2.9,0-3.4-1.1C610.8,159,610.1,159,609.6,159.7z"/>
		<path class="st0" d="M616.6,160.9c-0.8,0.4-2.2,0.7-1.2,1.7c1,1,1.6,1.4,3,1.3c1.4-0.1,3.6,0.8,3.7,0c0.1-0.8-1.3-2.1-1.9-2.1
			C619.6,161.7,616.6,160.9,616.6,160.9z"/>
		<path class="st0" d="M628.3,165.5c-0.3,1.3,1.8,1.8,1.9,0.4C630.3,164.5,628.5,164.4,628.3,165.5z"/>
		<path class="st0" d="M634.7,166.5c0.2,1.5,2.6-0.9,2.6-0.9s1.9-0.3,1.9-1.3c0-1-1.9-2.3-2.6-1.1
			C635.9,164.4,634.5,165.5,634.7,166.5z"/>
		<path class="st0" d="M629.4,150.7c-0.7,0.3-0.6,1-0.8,2.4c-0.2,1.4-1.3,2.4-0.4,3.1c1,0.7,2.8-2.4,3.2-1.4c0.5,1-0.1,1.4,0.7,2.7
			c0.8,1.3,2.4,1.1,2.4,1.1s-0.1-3.4-1.4-4.3c-1.3-0.8-2.2-1.8-0.6-1.6c1.6,0.3,2.4-0.4,2-1.3c-0.4-0.9-2.6-0.4-3.4-0.3
			C630.5,151.4,629.4,150.7,629.4,150.7z"/>
		<path class="st0" d="M630.1,147.8c-0.8,1-0.2,2,1.1,1.8c1.3-0.1,4.1-0.6,4.7-0.6c0.6,0,1.4-1.8,1-1.8c-0.5,0-3.8,0.7-4.2,0.9
			C632.3,148.3,630.1,147.8,630.1,147.8z"/>
		<path class="st0" d="M642.3,145.9c-1.1-0.6-3.1,4.7-1.7,5.1C642.1,151.4,643.2,146.3,642.3,145.9z"/>
		<path class="st0" d="M625.9,138.4c0-1-1.9,0.3-2,1.3c-0.1,1,1.3,1.8-1,1.8c-2.3,0-2.4,2.1-2.9,2.6c-0.5,0.4-1,0.6-1.9,0.8
			c-1,0.3-1.2,1.4-1.4,2.1c-0.2,0.7-1.9-1.3-2.4-0.7c-0.5,0.6-0.1,3.3,0.7,5.5c0.8,2.3,3,3.7,3.6,3.7c0.6,0,1.8,0,2.6,0.3
			c0.8,0.3,3.6,0.6,3.5-0.7c-0.1-1.3-0.4-3.3,0.8-4.5c1.2-1.3,2.4-2,1.8-3.8c-0.6-1.8-1.8-3-1-3.8c0.8-0.9,1.8-1.1,1.8-1.8
			C628.2,140.3,626.2,143,625.9,138.4z"/>
		<path class="st0" d="M631.8,118.4c-0.8,0,0.1,1.6-1.1,2.5c-1.2,1-2.5,1.4-1.8,3.1c0.7,1.7,3.2,3,2.6,3.7c-0.6,0.7-2.4,2.1-2.6,3.4
			c-0.2,1.3,2.9-2,3.7-3.3c0.8-1.3,2.5-0.6,2.9-1.3c0.4-0.7,0.4-0.7,0.4-0.7s-1.3-0.3-2.4-0.7c-1.1-0.4-2.4,1.1-1.8-1.1
			c0.6-2.3,2.4-1.8,2-3.5C633.3,118.8,632.1,118.4,631.8,118.4z"/>
		<path class="st0" d="M632.9,130.7c-0.4,0.2-1.4,2.7-0.1,2.7c1.3,0,3.6,0.4,3.1-0.3C635.4,132.4,634.2,130.1,632.9,130.7z"/>
		<path class="st0" d="M636.8,128.6c-0.5,0-2,3,0.1,2.8C639.1,131.3,638.5,128.7,636.8,128.6z"/>
		<path class="st0" d="M637.2,133.8c-1.7,2.6-1.6,2-2.8,1.4c-1.2-0.6-3.1,1.3-2.8,2c0.4,0.7,3-0.1,3.6,1.1c0.6,1.3,0.6,1.4,1.8,1.1
			c1.2-0.3,2.4-2.3,2-3.3C638.7,135.2,637.2,133.8,637.2,133.8z"/>
		<path class="st0" d="M645.3,150.5c-0.9,1.1-1.3,1.1,0.7,1.6c2,0.4,2.6,0.4,1.8,1.6c-0.8,1.1-1.4,2.6-0.7,2.7
			c0.7,0.1,2.9-0.6,3.1,0c0.2,0.6-0.5,0.7,1.9,1.1c2.4,0.4,2.9,1.4,3.4,2c0.5,0.6,1.9,2.4,1,2.4s-2,1.4-1.3,1.6c0.7,0.1,2.9-0.4,3,0
			c0.1,0.4,1.3,3.1,2.5,3c1.2-0.1,1.9-2.7,2.5-3.4c0.6-0.7,3-1.1,3.2,0.1c0.2,1.3,1,2.5,2.4,3.4c1.4,0.9,3.1,1.7,3.2,1
			c0.1-0.7-0.7-3.4-1.7-3.8c-1-0.4-2.6-2.8-2.6-3.8c0-1-1.4-1.3-2.2-2c-0.7-0.7-1.3-2.7-3.1-3.1c-1.8-0.4-2.3-1.1-4.2-2.3
			c-1.9-1.1-6.2-1.1-6.4-0.4c-0.1,0.7,0,0-1.4-0.6c-1.4-0.6-2.5,0-2.9-1C647.2,149.5,646.4,149.3,645.3,150.5z"/>
	</g>
</g>
<g id="Layer_2">
	<g>
		<path class="st1" d="M215.6,188.6l-43.4-88.5c0,0-3-5.3-4.4-6.5c-1.4-1.3-3-2-5.7-2h-11.6c-1.3,0-2.4,1.1-2.4,2.4v3.4
			c0,1.3,1.1,2.4,2.4,2.4h10.7c0,0,1.7,0.1,2.5,1.3c0.6,0.8,1.4,2.4,1.4,2.4l43.8,88.4c0.6,1.2,2,1.7,3.2,1.1l2.3-1.1
			C215.7,191.3,216.2,189.8,215.6,188.6z"/>
		<g>
			
				<rect x="192.2" y="119.4" transform="matrix(0.8976 -0.4408 0.4408 0.8976 -43.1831 114.2738)" class="st2" width="64.3" height="61.4"/>
			<polygon class="st3" points="209,191.8 182,136.7 239.7,108.4 			"/>
			
				<rect x="204.4" y="123.5" transform="matrix(0.8991 -0.4378 0.4378 0.8991 -36.1399 105.542)" class="st2" width="12.9" height="15.3"/>
		</g>
		<path class="st4" d="M145.7,95.3c0.4,1.9,2.3,3.1,4.2,2.7l8.6-1.8c1.9-0.4,3.1-2.3,2.7-4.2l0,0c-0.4-1.9-2.3-3.1-4.2-2.7l-8.6,1.8
			C146.5,91.5,145.3,93.4,145.7,95.3L145.7,95.3z"/>
		<path class="st5" d="M84.9,69.9c-1.3-3,0.1-6.4,3-7.7c2.4-1,5-0.3,6.6,1.4c0,0,0.7,0.9,0.9,1.2c4.1,6.3,24.5,34.3,57.4,25.2
			c1,3.3,1.1,3.7,1.4,7C106.8,112.7,85,70.1,85,70.1v0C85,70,84.9,70,84.9,69.9z"/>
		<path class="st6" d="M85.9,70.7c-1.3-3,0-6.4,3-7.7c2.3-1,5-0.4,6.6,1.4c0,0,0.7,0.9,0.8,1.2c3,4.6,7.2,9.2,13.3,14.7
			c6.4,5.6,14.7,8.8,14.7,8.8l-3.2,10.1c0,0-3-0.1-9.9-3.7c-2.9-1.5-5.6-3.3-10.5-6.9c-4-3-7.7-6.8-10.2-10.3c-3-4-4.7-7.3-4.7-7.3
			l0,0C86,70.9,86,70.8,85.9,70.7z"/>
		<path class="st7" d="M98.7,86.9c0,0,2.9-3.5,3.9-4.7c1-1.2,3.9-4.9,3.9-4.9l4.1,3.7c0,0-2.9,4-3.8,5.1c-1,1.2-4,4.8-4,4.8
			s-0.5-0.4-1.1-1c-0.6-0.6-1.3-1.3-1.9-1.9C98.7,87,98.7,86.9,98.7,86.9z"/>
		<polygon class="st8" points="127.1,171.4 136.1,159.2 84.1,120.4 69.4,140.1 		"/>
		<polygon class="st8" points="119.8,222.7 129.8,223.7 136.1,159.1 119.9,157.5 		"/>
		<polygon class="st9" points="146.4,232.7 137,231.6 126.3,229.3 126.1,230.4 117.9,229.4 118.9,221.2 129.3,222.5 146.8,229.7 		
			"/>
		<polygon class="st8" points="57.7,183 72.2,187.5 91.1,125.3 67.6,118.2 		"/>
		<polygon class="st8" points="6.9,193.6 9.4,203.4 72.3,187.4 68.3,171.6 		"/>
		<polygon class="st9" points="6.6,222 4.4,212.8 2.9,201.9 1.9,202.2 0,194.1 8.1,192.2 10.4,202.5 9.5,221.3 		"/>
		<polygon class="st10" points="8.3,221.6 6.6,222 4.4,212.8 2.9,201.9 1.9,202.2 0,194.1 1.7,193.7 		"/>
		<polygon class="st4" points="89.2,52.7 98.5,54.8 100.7,45.1 91.3,43 		"/>
		<path class="st4" d="M88.6,23.1C87,29.9,87.1,36.6,92,39.1l-1.7,8l9.4,2.1c6.8,1.7,9.3-2.9,10.9-9.7l3.5,0.3l-1.2-9.5l0.8-3.2
			c1.7-6.8-2.5-13.7-9.3-15.4l0,0C97.7,10,90.8,14.2,89.1,21L88.6,23.1z"/>
		<path class="st11" d="M89.9,32.8c4.6,1.3,3.7-7.3,8.4-5.7c4.1,1.4,0.5,4.9,2.7,5.7c3.5,1.3,0.8-12.2,8.2-10.7
			c7.2,1.4-0.6-2.3-0.2-6.8c-4.3,3.1,3-4.8-3.8-6.5l0,0c-6.8-1.7-13.7,2.5-15.4,9.3C89.8,18.2,84,31.1,89.9,32.8z"/>
		<path class="st12" d="M106.9,31.2c-0.2,0.6,0.2,1.3,0.8,1.5c0.7,0.2,1.3-0.2,1.5-0.8c0.2-0.7-0.2-1.3-0.8-1.5
			C107.8,30.2,107.1,30.6,106.9,31.2z"/>
		<polygon class="st12" points="106.7,28.3 111.1,29.6 111.3,28.8 106.9,27.5 		"/>
		<polygon class="st10" points="146.6,231 146.4,232.7 137,231.6 126.3,229.3 126.1,230.4 117.9,229.4 118.1,227.7 		"/>
		<path class="st13" d="M95,30.3c-0.5,1.6,0.2,3.2,1.5,3.6c1.3,0.4,2.7-0.6,3.2-2.2c0.5-1.6-0.2-3.2-1.5-3.6
			C96.9,27.8,95.5,28.7,95,30.3z"/>
		<path class="st14" d="M95.9,30.6c-0.3,1,0.1,2,0.9,2.2c0.8,0.3,1.7-0.4,2-1.3c0.3-1-0.1-2-0.9-2.2C97.1,29,96.2,29.6,95.9,30.6z"
			/>
		<path class="st15" d="M105.4,8.9c-8.1-1.9-16.2,3.2-18.1,11.3l29.4,6.8C118.6,18.9,113.5,10.8,105.4,8.9z"/>
		<polygon class="st16" points="125.2,28.8 114.7,26.6 115,25.1 125.5,27.3 		"/>
		<line class="st17" x1="115.7" y1="103" x2="120.4" y2="93.5"/>
		<path class="st4" d="M144.2,103.1c0.2,1.9,1.8,3.2,3.6,3.1l8.3-0.7c1.9-0.1,3.2-1.8,3.1-3.6l0,0c-0.1-1.8-1.7-3.2-3.6-3.1
			l-8.3,0.6C145.4,99.6,144.1,101.2,144.2,103.1L144.2,103.1z"/>
		<path class="st17" d="M121,93.8c7.6,4.2,17.1,6.7,28.6,5.2c0.5,3.4,0.6,3.8,0.5,7.2c-13.7,2.5-24.9,1.1-33.7-2.8
			C104.4,98,106,85.6,121,93.8z"/>
		<polygon class="st18" points="66.1,123.8 90.3,125.2 102.7,55.1 84.3,50.9 		"/>
		<polygon class="st15" points="102.7,55.1 103.5,59.9 83.8,52.6 84.3,50.9 		"/>
		<polygon class="st15" points="66.1,124.1 90.3,125.7 91.7,117.8 67.9,116.3 		"/>
		<line class="st17" x1="115.5" y1="103.2" x2="120.1" y2="93.7"/>
		<polygon class="st19" points="69.3,110.8 92.6,112.4 91.7,117.8 68,116.3 		"/>
		<path class="st19" d="M76,84c0,0,7.6,0.8,10.2,1.1c2.8,0.3,11.2,1,11.2,1l-1.1,5.6c0,0-8-0.6-10.7-0.9c-2.7-0.3-11-1.1-11-1.1
			L76,84z"/>
		<path class="st20" d="M258.9,171.6c1,2,0.1,4.4-1.9,5.4l-39.5,19.1c-2,1-4.4,0.1-5.4-1.9l0,0c-1-2-0.1-4.4,1.9-5.4l39.5-19.1
			C255.5,168.8,257.9,169.6,258.9,171.6L258.9,171.6z"/>
		<path class="st21" d="M213.1,192.6l-43.4-88.5c0,0-3-5.3-4.4-6.5c-1.4-1.3-3-2-5.7-2H148c-1.3,0-2.4,1.1-2.4,2.4v3.4
			c0,1.3,1.1,2.4,2.4,2.4h10.7c0,0,1.7,0.1,2.5,1.3c0.6,0.8,1.4,2.4,1.4,2.4l43.8,88.4c0.6,1.2,2,1.7,3.2,1.1l2.3-1.1
			C213.2,195.2,213.7,193.8,213.1,192.6z"/>
		<circle class="st22" cx="208.5" cy="200.9" r="19.5"/>
		<circle class="st23" cx="208.5" cy="200.9" r="5.9"/>
		<path class="st4" d="M143.7,103.3c0.3,1.9,2,3.3,3.8,3.1l8.3-0.8c1.9-0.2,3.1-1.9,2.9-3.8l0,0c-0.3-1.9-2-3.3-3.8-3.1l-8.3,0.8
			C144.7,99.7,143.5,101.4,143.7,103.3L143.7,103.3z"/>
		<path class="st17" d="M120.7,94c7.6,4.2,17.1,6.7,28.5,5.1c0.5,3.4,0.6,3.8,0.5,7.1c-13.7,2.5-24.8,1.1-33.6-2.8
			C104.1,98.1,105.8,85.8,120.7,94z"/>
		<path class="st24" d="M84.6,69.9c-0.9-3.1,1-6.3,4.1-7.2c2.5-0.7,5,0.3,6.4,2.3c0,0,0.6,1,0.7,1.3c2.3,5,5.6,10.3,11.1,16.5
			c5.6,6.4,13.3,10.9,13.3,10.9s-0.5,2.3-1.9,4.7c-1,1.8-2.7,4.7-2.7,4.7s-10.1-4.7-18.6-13.4c-7.8-8-12.2-19.6-12.2-19.6l0,0
			C84.7,70.1,84.6,70,84.6,69.9z"/>
		<path class="st19" d="M96,88.8c0,0,2.9-3.5,3.9-4.7c1-1.2,3.9-4.9,3.9-4.9s1.4,1.8,1.9,2.3c0.4,0.5,1.8,2.1,1.8,2.1
			s-2.5,3.3-3.4,4.4c-1,1.2-4,4.8-4,4.8s-0.5-0.4-1.1-1c-0.6-0.6-1.3-1.3-1.9-1.9C96,88.9,96,88.8,96,88.8z"/>
	</g>
	<g>
		<g>
			<path class="st25" d="M670.8,223.9v-2c0-0.6-0.5-1-1-1s-1,0.5-1,1v2c-13.4-0.5-24.2-11.4-24.8-24.8h2c0.6,0,1-0.5,1-1
				c0-0.6-0.5-1-1-1h-2c0.5-13.4,11.4-24.2,24.8-24.8v2c0,0.6,0.5,1,1,1s1-0.5,1-1v-2c13.4,0.5,24.2,11.4,24.8,24.8h-2
				c-0.6,0-1,0.5-1,1c0,0.6,0.5,1,1,1h2C695,212.6,684.2,223.4,670.8,223.9z M699.7,197.1h-2.1c-0.5-14.6-12.3-26.3-26.8-26.8v-2.1
				c0-0.6-0.5-1-1-1s-1,0.5-1,1v2.1c-14.6,0.5-26.3,12.3-26.8,26.8h-2.1c-0.6,0-1,0.5-1,1c0,0.6,0.5,1,1,1h2.1
				c0.5,14.6,12.3,26.3,26.8,26.8v2.1c0,0.6,0.5,1,1,1s1-0.5,1-1V226c14.6-0.5,26.3-12.3,26.8-26.8h2.1c0.6,0,1-0.5,1-1
				C700.7,197.6,700.3,197.1,699.7,197.1z"/>
		</g>
	</g>
	<g>
		<path class="st25" d="M669.7,203.3c-2.9,0-5.2-2.3-5.2-5.2c0-2.9,2.3-5.2,5.2-5.2s5.2,2.3,5.2,5.2
			C674.9,201,672.6,203.3,669.7,203.3z M682.1,197.1h-5.3c-0.5-3.2-3-5.7-6.1-6.1v-5.3c0-0.6-0.5-1-1-1s-1,0.5-1,1v5.3
			c-3.2,0.5-5.7,3-6.1,6.1h-5.3c-0.6,0-1,0.5-1,1c0,0.6,0.5,1,1,1h5.3c0.5,3.2,3,5.7,6.1,6.1v5.3c0,0.6,0.5,1,1,1s1-0.5,1-1v-5.3
			c3.2-0.5,5.7-3,6.1-6.1h5.3c0.6,0,1-0.5,1-1C683.2,197.6,682.7,197.1,682.1,197.1z"/>
	</g>
	<g>
		<g>
			<path class="st25" d="M612.8,113.9v-2c0-0.6-0.5-1-1-1s-1,0.5-1,1v2c-13.4-0.5-24.2-11.4-24.8-24.8h2c0.6,0,1-0.5,1-1s-0.5-1-1-1
				h-2c0.5-13.4,11.4-24.2,24.8-24.8v2c0,0.6,0.5,1,1,1s1-0.5,1-1v-2c13.4,0.5,24.2,11.4,24.8,24.8h-2c-0.6,0-1,0.5-1,1s0.5,1,1,1h2
				C637,102.6,626.2,113.4,612.8,113.9z M641.7,87.1h-2.1c-0.5-14.6-12.3-26.3-26.8-26.8v-2.1c0-0.6-0.5-1-1-1s-1,0.5-1,1v2.1
				c-14.6,0.5-26.3,12.3-26.8,26.8h-2.1c-0.6,0-1,0.5-1,1s0.5,1,1,1h2.1c0.5,14.6,12.3,26.3,26.8,26.8v2.1c0,0.6,0.5,1,1,1
				s1-0.5,1-1V116c14.6-0.5,26.3-12.3,26.8-26.8h2.1c0.6,0,1-0.5,1-1S642.3,87.1,641.7,87.1z"/>
		</g>
	</g>
	<g>
		<path class="st25" d="M611.7,93.3c-2.9,0-5.2-2.3-5.2-5.2s2.3-5.2,5.2-5.2s5.2,2.3,5.2,5.2S614.6,93.3,611.7,93.3z M624.1,87.1
			h-5.3c-0.5-3.2-3-5.7-6.1-6.1v-5.3c0-0.6-0.5-1-1-1s-1,0.5-1,1V81c-3.2,0.5-5.7,3-6.1,6.1h-5.3c-0.6,0-1,0.5-1,1s0.5,1,1,1h5.3
			c0.5,3.2,3,5.7,6.1,6.1v5.3c0,0.6,0.5,1,1,1s1-0.5,1-1v-5.3c3.2-0.5,5.7-3,6.1-6.1h5.3c0.6,0,1-0.5,1-1S624.7,87.1,624.1,87.1z"/>
	</g>
	<g>
		<g>
			<path class="st25" d="M476.8,89.9v-2c0-0.6-0.5-1-1-1c-0.6,0-1,0.5-1,1v2c-13.4-0.5-24.2-11.4-24.8-24.8h2c0.6,0,1-0.5,1-1
				s-0.5-1-1-1h-2c0.5-13.4,11.4-24.2,24.8-24.8v2c0,0.6,0.5,1,1,1c0.6,0,1-0.5,1-1v-2c13.4,0.5,24.2,11.4,24.8,24.8h-2
				c-0.6,0-1,0.5-1,1s0.5,1,1,1h2C501,78.6,490.2,89.4,476.8,89.9z M505.7,63.1h-2.1c-0.5-14.6-12.3-26.3-26.8-26.8v-2.1
				c0-0.6-0.5-1-1-1c-0.6,0-1,0.5-1,1v2.1c-14.6,0.5-26.3,12.3-26.8,26.8h-2.1c-0.6,0-1,0.5-1,1s0.5,1,1,1h2.1
				c0.5,14.6,12.3,26.3,26.8,26.8v2.1c0,0.6,0.5,1,1,1c0.6,0,1-0.5,1-1V92c14.6-0.5,26.3-12.3,26.8-26.8h2.1c0.6,0,1-0.5,1-1
				S506.3,63.1,505.7,63.1z"/>
		</g>
	</g>
	<g>
		<path class="st25" d="M475.7,69.3c-2.9,0-5.2-2.3-5.2-5.2s2.3-5.2,5.2-5.2s5.2,2.3,5.2,5.2S478.6,69.3,475.7,69.3z M488.1,63.1
			h-5.3c-0.5-3.2-3-5.7-6.1-6.1v-5.3c0-0.6-0.5-1-1-1c-0.6,0-1,0.5-1,1V57c-3.2,0.5-5.7,3-6.1,6.1h-5.3c-0.6,0-1,0.5-1,1s0.5,1,1,1
			h5.3c0.5,3.2,3,5.7,6.1,6.1v5.3c0,0.6,0.5,1,1,1c0.6,0,1-0.5,1-1v-5.3c3.2-0.5,5.7-3,6.1-6.1h5.3c0.6,0,1-0.5,1-1
			S488.7,63.1,488.1,63.1z"/>
	</g>
	<g>
		<g>
			<path class="st25" d="M388.8,179.9v-2c0-0.6-0.5-1-1-1c-0.6,0-1,0.5-1,1v2c-13.4-0.5-24.2-11.4-24.8-24.8h2c0.6,0,1-0.5,1-1
				c0-0.6-0.5-1-1-1h-2c0.5-13.4,11.4-24.2,24.8-24.8v2c0,0.6,0.5,1,1,1c0.6,0,1-0.5,1-1v-2c13.4,0.5,24.2,11.4,24.8,24.8h-2
				c-0.6,0-1,0.5-1,1c0,0.6,0.5,1,1,1h2C413,168.6,402.2,179.4,388.8,179.9z M417.7,153.1h-2.1c-0.5-14.6-12.3-26.3-26.8-26.8v-2.1
				c0-0.6-0.5-1-1-1c-0.6,0-1,0.5-1,1v2.1c-14.6,0.5-26.3,12.3-26.8,26.8h-2.1c-0.6,0-1,0.5-1,1c0,0.6,0.5,1,1,1h2.1
				c0.5,14.6,12.3,26.3,26.8,26.8v2.1c0,0.6,0.5,1,1,1c0.6,0,1-0.5,1-1V182c14.6-0.5,26.3-12.3,26.8-26.8h2.1c0.6,0,1-0.5,1-1
				C418.7,153.6,418.3,153.1,417.7,153.1z"/>
		</g>
	</g>
	<g>
		<path class="st25" d="M387.7,159.3c-2.9,0-5.2-2.3-5.2-5.2c0-2.9,2.3-5.2,5.2-5.2s5.2,2.3,5.2,5.2
			C392.9,157,390.6,159.3,387.7,159.3z M400.1,153.1h-5.3c-0.5-3.2-3-5.7-6.1-6.1v-5.3c0-0.6-0.5-1-1-1c-0.6,0-1,0.5-1,1v5.3
			c-3.2,0.5-5.7,3-6.1,6.1h-5.3c-0.6,0-1,0.5-1,1c0,0.6,0.5,1,1,1h5.3c0.5,3.2,3,5.7,6.1,6.1v5.3c0,0.6,0.5,1,1,1c0.6,0,1-0.5,1-1
			v-5.3c3.2-0.5,5.7-3,6.1-6.1h5.3c0.6,0,1-0.5,1-1C401.2,153.6,400.7,153.1,400.1,153.1z"/>
	</g>
	<g>
		<g>
			<path class="st25" d="M294.8,103.9v-2c0-0.6-0.5-1-1-1c-0.6,0-1,0.5-1,1v2c-13.4-0.5-24.2-11.4-24.8-24.8h2c0.6,0,1-0.5,1-1
				s-0.5-1-1-1h-2c0.5-13.4,11.4-24.2,24.8-24.8v2c0,0.6,0.5,1,1,1c0.6,0,1-0.5,1-1v-2c13.4,0.5,24.2,11.4,24.8,24.8h-2
				c-0.6,0-1,0.5-1,1s0.5,1,1,1h2C319,92.6,308.2,103.4,294.8,103.9z M323.7,77.1h-2.1c-0.5-14.6-12.3-26.3-26.8-26.8v-2.1
				c0-0.6-0.5-1-1-1c-0.6,0-1,0.5-1,1v2.1c-14.6,0.5-26.3,12.3-26.8,26.8h-2.1c-0.6,0-1,0.5-1,1s0.5,1,1,1h2.1
				c0.5,14.6,12.3,26.3,26.8,26.8v2.1c0,0.6,0.5,1,1,1c0.6,0,1-0.5,1-1V106c14.6-0.5,26.3-12.3,26.8-26.8h2.1c0.6,0,1-0.5,1-1
				S324.3,77.1,323.7,77.1z"/>
		</g>
	</g>
	<g>
		<path class="st25" d="M293.7,83.3c-2.9,0-5.2-2.3-5.2-5.2s2.3-5.2,5.2-5.2s5.2,2.3,5.2,5.2S296.6,83.3,293.7,83.3z M306.1,77.1
			h-5.3c-0.5-3.2-3-5.7-6.1-6.1v-5.3c0-0.6-0.5-1-1-1c-0.6,0-1,0.5-1,1V71c-3.2,0.5-5.7,3-6.1,6.1h-5.3c-0.6,0-1,0.5-1,1s0.5,1,1,1
			h5.3c0.5,3.2,3,5.7,6.1,6.1v5.3c0,0.6,0.5,1,1,1c0.6,0,1-0.5,1-1v-5.3c3.2-0.5,5.7-3,6.1-6.1h5.3c0.6,0,1-0.5,1-1
			S306.7,77.1,306.1,77.1z"/>
	</g>
</g>
</svg>
