<?xml version="1.0" encoding="utf-8"?>
<!-- Generator: Adobe Illustrator 19.1.0, SVG Export Plug-In . SVG Version: 6.00 Build 0)  -->
<svg version="1.1" id="Layer_1" xmlns="http://www.w3.org/2000/svg" xmlns:xlink="http://www.w3.org/1999/xlink" x="0px" y="0px"
	 viewBox="0 0 48 48" style="enable-background:new 0 0 48 48;" xml:space="preserve">
<g>
	<g>
		<path fill="#fff" d="M24.8,44v-1.6c0-0.4-0.4-0.8-0.8-0.8s-0.8,0.4-0.8,0.8V44C12.8,43.6,4.4,35.2,4,24.8h1.6c0.4,0,0.8-0.4,0.8-0.8
			S6,23.2,5.6,23.2H4C4.4,12.8,12.8,4.4,23.2,4v1.6c0,0.4,0.4,0.8,0.8,0.8s0.8-0.4,0.8-0.8V4C35.2,4.4,43.6,12.8,44,23.2h-1.6
			c-0.4,0-0.8,0.4-0.8,0.8s0.4,0.8,0.8,0.8H44C43.6,35.2,35.2,43.6,24.8,44z M47.2,23.2h-1.6C45.2,11.9,36.1,2.8,24.8,2.4V0.8
			C24.8,0.4,24.4,0,24,0s-0.8,0.4-0.8,0.8v1.6C11.9,2.8,2.8,11.9,2.4,23.2H0.8C0.4,23.2,0,23.6,0,24s0.4,0.8,0.8,0.8h1.6
			c0.4,11.3,9.5,20.4,20.8,20.8v1.6c0,0.4,0.4,0.8,0.8,0.8s0.8-0.4,0.8-0.8v-1.6c11.3-0.4,20.4-9.5,20.8-20.8h1.6
			c0.4,0,0.8-0.4,0.8-0.8S47.6,23.2,47.2,23.2z"/>
	</g>
</g>
<g>
	<path fill="#fff" d="M24,28c-2.2,0-4-1.8-4-4s1.8-4,4-4s4,1.8,4,4S26.2,28,24,28z M33.6,23.2h-4.1c-0.4-2.4-2.3-4.4-4.7-4.7v-4.1
		c0-0.4-0.4-0.8-0.8-0.8s-0.8,0.4-0.8,0.8v4.1c-2.4,0.4-4.4,2.3-4.7,4.7h-4.1c-0.4,0-0.8,0.4-0.8,0.8s0.4,0.8,0.8,0.8h4.1
		c0.4,2.4,2.3,4.4,4.7,4.7v4.1c0,0.4,0.4,0.8,0.8,0.8s0.8-0.4,0.8-0.8v-4.1c2.4-0.4,4.4-2.3,4.7-4.7h4.1c0.4,0,0.8-0.4,0.8-0.8
		S34,23.2,33.6,23.2z"/>
</g>
</svg>
